<mxfile host="Electron" modified="2024-05-15T12:09:39.213Z" agent="Mozilla/5.0 (Windows NT 10.0; Win64; x64) AppleWebKit/537.36 (KHTML, like Gecko) draw.io/24.4.0 Chrome/120.0.6099.109 Electron/28.1.0 Safari/537.36" etag="czkyVUqb30Uv6CHTjsAI" version="24.4.0" type="device" pages="2">
  <diagram name="Ej1" id="U8IwqaEYzjFnwXIepVUa">
    <mxGraphModel dx="888" dy="1392" grid="1" gridSize="10" guides="1" tooltips="1" connect="1" arrows="1" fold="1" page="1" pageScale="1" pageWidth="827" pageHeight="1169" math="0" shadow="0">
      <root>
        <mxCell id="0" />
        <mxCell id="1" parent="0" />
        <mxCell id="WkzwtYQDzA7ovl5EQE6o-34" value="PROVEEDOR" style="shape=table;startSize=30;container=1;collapsible=0;childLayout=tableLayout;strokeColor=default;fontSize=16;" vertex="1" parent="1">
          <mxGeometry x="70" y="90" width="950" height="150" as="geometry" />
        </mxCell>
        <mxCell id="WkzwtYQDzA7ovl5EQE6o-35" value="" style="shape=tableRow;horizontal=0;startSize=0;swimlaneHead=0;swimlaneBody=0;strokeColor=inherit;top=0;left=0;bottom=0;right=0;collapsible=0;dropTarget=0;fillColor=none;points=[[0,0.5],[1,0.5]];portConstraint=eastwest;fontSize=16;" vertex="1" parent="WkzwtYQDzA7ovl5EQE6o-34">
          <mxGeometry y="30" width="950" height="60" as="geometry" />
        </mxCell>
        <mxCell id="WkzwtYQDzA7ovl5EQE6o-36" value="id" style="shape=partialRectangle;html=1;whiteSpace=wrap;connectable=0;strokeColor=inherit;overflow=hidden;fillColor=none;top=0;left=0;bottom=0;right=0;pointerEvents=1;fontSize=16;" vertex="1" parent="WkzwtYQDzA7ovl5EQE6o-35">
          <mxGeometry width="190" height="60" as="geometry">
            <mxRectangle width="190" height="60" as="alternateBounds" />
          </mxGeometry>
        </mxCell>
        <mxCell id="WkzwtYQDzA7ovl5EQE6o-37" value="nombre" style="shape=partialRectangle;html=1;whiteSpace=wrap;connectable=0;strokeColor=inherit;overflow=hidden;fillColor=none;top=0;left=0;bottom=0;right=0;pointerEvents=1;fontSize=16;" vertex="1" parent="WkzwtYQDzA7ovl5EQE6o-35">
          <mxGeometry x="190" width="190" height="60" as="geometry">
            <mxRectangle width="190" height="60" as="alternateBounds" />
          </mxGeometry>
        </mxCell>
        <mxCell id="WkzwtYQDzA7ovl5EQE6o-38" value="direcciÃ³n" style="shape=partialRectangle;html=1;whiteSpace=wrap;connectable=0;strokeColor=inherit;overflow=hidden;fillColor=none;top=0;left=0;bottom=0;right=0;pointerEvents=1;fontSize=16;" vertex="1" parent="WkzwtYQDzA7ovl5EQE6o-35">
          <mxGeometry x="380" width="190" height="60" as="geometry">
            <mxRectangle width="190" height="60" as="alternateBounds" />
          </mxGeometry>
        </mxCell>
        <mxCell id="WkzwtYQDzA7ovl5EQE6o-47" value="ciudad" style="shape=partialRectangle;html=1;whiteSpace=wrap;connectable=0;strokeColor=inherit;overflow=hidden;fillColor=none;top=0;left=0;bottom=0;right=0;pointerEvents=1;fontSize=16;" vertex="1" parent="WkzwtYQDzA7ovl5EQE6o-35">
          <mxGeometry x="570" width="190" height="60" as="geometry">
            <mxRectangle width="190" height="60" as="alternateBounds" />
          </mxGeometry>
        </mxCell>
        <mxCell id="WkzwtYQDzA7ovl5EQE6o-50" value="provincia" style="shape=partialRectangle;html=1;whiteSpace=wrap;connectable=0;strokeColor=inherit;overflow=hidden;fillColor=none;top=0;left=0;bottom=0;right=0;pointerEvents=1;fontSize=16;" vertex="1" parent="WkzwtYQDzA7ovl5EQE6o-35">
          <mxGeometry x="760" width="190" height="60" as="geometry">
            <mxRectangle width="190" height="60" as="alternateBounds" />
          </mxGeometry>
        </mxCell>
        <mxCell id="WkzwtYQDzA7ovl5EQE6o-39" value="" style="shape=tableRow;horizontal=0;startSize=0;swimlaneHead=0;swimlaneBody=0;strokeColor=inherit;top=0;left=0;bottom=0;right=0;collapsible=0;dropTarget=0;fillColor=none;points=[[0,0.5],[1,0.5]];portConstraint=eastwest;fontSize=16;" vertex="1" parent="WkzwtYQDzA7ovl5EQE6o-34">
          <mxGeometry y="90" width="950" height="60" as="geometry" />
        </mxCell>
        <mxCell id="WkzwtYQDzA7ovl5EQE6o-40" value="PK" style="shape=partialRectangle;html=1;whiteSpace=wrap;connectable=0;strokeColor=inherit;overflow=hidden;fillColor=none;top=0;left=0;bottom=0;right=0;pointerEvents=1;fontSize=16;" vertex="1" parent="WkzwtYQDzA7ovl5EQE6o-39">
          <mxGeometry width="190" height="60" as="geometry">
            <mxRectangle width="190" height="60" as="alternateBounds" />
          </mxGeometry>
        </mxCell>
        <mxCell id="WkzwtYQDzA7ovl5EQE6o-41" value="" style="shape=partialRectangle;html=1;whiteSpace=wrap;connectable=0;strokeColor=inherit;overflow=hidden;fillColor=none;top=0;left=0;bottom=0;right=0;pointerEvents=1;fontSize=16;" vertex="1" parent="WkzwtYQDzA7ovl5EQE6o-39">
          <mxGeometry x="190" width="190" height="60" as="geometry">
            <mxRectangle width="190" height="60" as="alternateBounds" />
          </mxGeometry>
        </mxCell>
        <mxCell id="WkzwtYQDzA7ovl5EQE6o-42" value="" style="shape=partialRectangle;html=1;whiteSpace=wrap;connectable=0;strokeColor=inherit;overflow=hidden;fillColor=none;top=0;left=0;bottom=0;right=0;pointerEvents=1;fontSize=16;" vertex="1" parent="WkzwtYQDzA7ovl5EQE6o-39">
          <mxGeometry x="380" width="190" height="60" as="geometry">
            <mxRectangle width="190" height="60" as="alternateBounds" />
          </mxGeometry>
        </mxCell>
        <mxCell id="WkzwtYQDzA7ovl5EQE6o-48" style="shape=partialRectangle;html=1;whiteSpace=wrap;connectable=0;strokeColor=inherit;overflow=hidden;fillColor=none;top=0;left=0;bottom=0;right=0;pointerEvents=1;fontSize=16;" vertex="1" parent="WkzwtYQDzA7ovl5EQE6o-39">
          <mxGeometry x="570" width="190" height="60" as="geometry">
            <mxRectangle width="190" height="60" as="alternateBounds" />
          </mxGeometry>
        </mxCell>
        <mxCell id="WkzwtYQDzA7ovl5EQE6o-51" style="shape=partialRectangle;html=1;whiteSpace=wrap;connectable=0;strokeColor=inherit;overflow=hidden;fillColor=none;top=0;left=0;bottom=0;right=0;pointerEvents=1;fontSize=16;" vertex="1" parent="WkzwtYQDzA7ovl5EQE6o-39">
          <mxGeometry x="760" width="190" height="60" as="geometry">
            <mxRectangle width="190" height="60" as="alternateBounds" />
          </mxGeometry>
        </mxCell>
        <mxCell id="WkzwtYQDzA7ovl5EQE6o-53" value="SUMINISTRA" style="shape=table;startSize=30;container=1;collapsible=0;childLayout=tableLayout;strokeColor=default;fontSize=16;" vertex="1" parent="1">
          <mxGeometry x="80" y="350" width="760" height="210" as="geometry" />
        </mxCell>
        <mxCell id="WkzwtYQDzA7ovl5EQE6o-54" value="" style="shape=tableRow;horizontal=0;startSize=0;swimlaneHead=0;swimlaneBody=0;strokeColor=inherit;top=0;left=0;bottom=0;right=0;collapsible=0;dropTarget=0;fillColor=none;points=[[0,0.5],[1,0.5]];portConstraint=eastwest;fontSize=16;" vertex="1" parent="WkzwtYQDzA7ovl5EQE6o-53">
          <mxGeometry y="30" width="760" height="60" as="geometry" />
        </mxCell>
        <mxCell id="WkzwtYQDzA7ovl5EQE6o-55" value="idProveedor" style="shape=partialRectangle;html=1;whiteSpace=wrap;connectable=0;strokeColor=inherit;overflow=hidden;fillColor=none;top=0;left=0;bottom=0;right=0;pointerEvents=1;fontSize=16;" vertex="1" parent="WkzwtYQDzA7ovl5EQE6o-54">
          <mxGeometry width="190" height="60" as="geometry">
            <mxRectangle width="190" height="60" as="alternateBounds" />
          </mxGeometry>
        </mxCell>
        <mxCell id="WkzwtYQDzA7ovl5EQE6o-56" value="idPieza" style="shape=partialRectangle;html=1;whiteSpace=wrap;connectable=0;strokeColor=inherit;overflow=hidden;fillColor=none;top=0;left=0;bottom=0;right=0;pointerEvents=1;fontSize=16;" vertex="1" parent="WkzwtYQDzA7ovl5EQE6o-54">
          <mxGeometry x="190" width="190" height="60" as="geometry">
            <mxRectangle width="190" height="60" as="alternateBounds" />
          </mxGeometry>
        </mxCell>
        <mxCell id="WkzwtYQDzA7ovl5EQE6o-57" value="fecha" style="shape=partialRectangle;html=1;whiteSpace=wrap;connectable=0;strokeColor=inherit;overflow=hidden;fillColor=none;top=0;left=0;bottom=0;right=0;pointerEvents=1;fontSize=16;" vertex="1" parent="WkzwtYQDzA7ovl5EQE6o-54">
          <mxGeometry x="380" width="190" height="60" as="geometry">
            <mxRectangle width="190" height="60" as="alternateBounds" />
          </mxGeometry>
        </mxCell>
        <mxCell id="WkzwtYQDzA7ovl5EQE6o-58" value="cantidad" style="shape=partialRectangle;html=1;whiteSpace=wrap;connectable=0;strokeColor=inherit;overflow=hidden;fillColor=none;top=0;left=0;bottom=0;right=0;pointerEvents=1;fontSize=16;" vertex="1" parent="WkzwtYQDzA7ovl5EQE6o-54">
          <mxGeometry x="570" width="190" height="60" as="geometry">
            <mxRectangle width="190" height="60" as="alternateBounds" />
          </mxGeometry>
        </mxCell>
        <mxCell id="WkzwtYQDzA7ovl5EQE6o-60" value="" style="shape=tableRow;horizontal=0;startSize=0;swimlaneHead=0;swimlaneBody=0;strokeColor=inherit;top=0;left=0;bottom=0;right=0;collapsible=0;dropTarget=0;fillColor=none;points=[[0,0.5],[1,0.5]];portConstraint=eastwest;fontSize=16;" vertex="1" parent="WkzwtYQDzA7ovl5EQE6o-53">
          <mxGeometry y="90" width="760" height="60" as="geometry" />
        </mxCell>
        <mxCell id="WkzwtYQDzA7ovl5EQE6o-61" value="PK" style="shape=partialRectangle;html=1;whiteSpace=wrap;connectable=0;strokeColor=inherit;overflow=hidden;fillColor=none;top=0;left=0;bottom=0;right=0;pointerEvents=1;fontSize=16;rowspan=1;colspan=2;" vertex="1" parent="WkzwtYQDzA7ovl5EQE6o-60">
          <mxGeometry width="380" height="60" as="geometry">
            <mxRectangle width="190" height="60" as="alternateBounds" />
          </mxGeometry>
        </mxCell>
        <mxCell id="WkzwtYQDzA7ovl5EQE6o-62" value="" style="shape=partialRectangle;html=1;whiteSpace=wrap;connectable=0;strokeColor=inherit;overflow=hidden;fillColor=none;top=0;left=0;bottom=0;right=0;pointerEvents=1;fontSize=16;" vertex="1" visible="0" parent="WkzwtYQDzA7ovl5EQE6o-60">
          <mxGeometry x="190" width="190" height="60" as="geometry">
            <mxRectangle width="190" height="60" as="alternateBounds" />
          </mxGeometry>
        </mxCell>
        <mxCell id="WkzwtYQDzA7ovl5EQE6o-63" value="" style="shape=partialRectangle;html=1;whiteSpace=wrap;connectable=0;strokeColor=inherit;overflow=hidden;fillColor=none;top=0;left=0;bottom=0;right=0;pointerEvents=1;fontSize=16;" vertex="1" parent="WkzwtYQDzA7ovl5EQE6o-60">
          <mxGeometry x="380" width="190" height="60" as="geometry">
            <mxRectangle width="190" height="60" as="alternateBounds" />
          </mxGeometry>
        </mxCell>
        <mxCell id="WkzwtYQDzA7ovl5EQE6o-64" style="shape=partialRectangle;html=1;whiteSpace=wrap;connectable=0;strokeColor=inherit;overflow=hidden;fillColor=none;top=0;left=0;bottom=0;right=0;pointerEvents=1;fontSize=16;" vertex="1" parent="WkzwtYQDzA7ovl5EQE6o-60">
          <mxGeometry x="570" width="190" height="60" as="geometry">
            <mxRectangle width="190" height="60" as="alternateBounds" />
          </mxGeometry>
        </mxCell>
        <mxCell id="WkzwtYQDzA7ovl5EQE6o-66" value="" style="shape=tableRow;horizontal=0;startSize=0;swimlaneHead=0;swimlaneBody=0;strokeColor=inherit;top=0;left=0;bottom=0;right=0;collapsible=0;dropTarget=0;fillColor=none;points=[[0,0.5],[1,0.5]];portConstraint=eastwest;fontSize=16;" vertex="1" parent="WkzwtYQDzA7ovl5EQE6o-53">
          <mxGeometry y="150" width="760" height="60" as="geometry" />
        </mxCell>
        <mxCell id="WkzwtYQDzA7ovl5EQE6o-67" value="FK.PROVEEDOR" style="shape=partialRectangle;html=1;whiteSpace=wrap;connectable=0;strokeColor=inherit;overflow=hidden;fillColor=none;top=0;left=0;bottom=0;right=0;pointerEvents=1;fontSize=16;" vertex="1" parent="WkzwtYQDzA7ovl5EQE6o-66">
          <mxGeometry width="190" height="60" as="geometry">
            <mxRectangle width="190" height="60" as="alternateBounds" />
          </mxGeometry>
        </mxCell>
        <mxCell id="WkzwtYQDzA7ovl5EQE6o-68" value="FK.PIEZA" style="shape=partialRectangle;html=1;whiteSpace=wrap;connectable=0;strokeColor=inherit;overflow=hidden;fillColor=none;top=0;left=0;bottom=0;right=0;pointerEvents=1;fontSize=16;" vertex="1" parent="WkzwtYQDzA7ovl5EQE6o-66">
          <mxGeometry x="190" width="190" height="60" as="geometry">
            <mxRectangle width="190" height="60" as="alternateBounds" />
          </mxGeometry>
        </mxCell>
        <mxCell id="WkzwtYQDzA7ovl5EQE6o-69" value="" style="shape=partialRectangle;html=1;whiteSpace=wrap;connectable=0;strokeColor=inherit;overflow=hidden;fillColor=none;top=0;left=0;bottom=0;right=0;pointerEvents=1;fontSize=16;" vertex="1" parent="WkzwtYQDzA7ovl5EQE6o-66">
          <mxGeometry x="380" width="190" height="60" as="geometry">
            <mxRectangle width="190" height="60" as="alternateBounds" />
          </mxGeometry>
        </mxCell>
        <mxCell id="WkzwtYQDzA7ovl5EQE6o-70" style="shape=partialRectangle;html=1;whiteSpace=wrap;connectable=0;strokeColor=inherit;overflow=hidden;fillColor=none;top=0;left=0;bottom=0;right=0;pointerEvents=1;fontSize=16;" vertex="1" parent="WkzwtYQDzA7ovl5EQE6o-66">
          <mxGeometry x="570" width="190" height="60" as="geometry">
            <mxRectangle width="190" height="60" as="alternateBounds" />
          </mxGeometry>
        </mxCell>
        <mxCell id="WkzwtYQDzA7ovl5EQE6o-72" value="PIEZA" style="shape=table;startSize=30;container=1;collapsible=0;childLayout=tableLayout;strokeColor=default;fontSize=16;" vertex="1" parent="1">
          <mxGeometry x="90" y="620" width="950" height="210" as="geometry" />
        </mxCell>
        <mxCell id="WkzwtYQDzA7ovl5EQE6o-73" value="" style="shape=tableRow;horizontal=0;startSize=0;swimlaneHead=0;swimlaneBody=0;strokeColor=inherit;top=0;left=0;bottom=0;right=0;collapsible=0;dropTarget=0;fillColor=none;points=[[0,0.5],[1,0.5]];portConstraint=eastwest;fontSize=16;" vertex="1" parent="WkzwtYQDzA7ovl5EQE6o-72">
          <mxGeometry y="30" width="950" height="60" as="geometry" />
        </mxCell>
        <mxCell id="WkzwtYQDzA7ovl5EQE6o-74" value="id" style="shape=partialRectangle;html=1;whiteSpace=wrap;connectable=0;strokeColor=inherit;overflow=hidden;fillColor=none;top=0;left=0;bottom=0;right=0;pointerEvents=1;fontSize=16;" vertex="1" parent="WkzwtYQDzA7ovl5EQE6o-73">
          <mxGeometry width="190" height="60" as="geometry">
            <mxRectangle width="190" height="60" as="alternateBounds" />
          </mxGeometry>
        </mxCell>
        <mxCell id="WkzwtYQDzA7ovl5EQE6o-75" value="nombre" style="shape=partialRectangle;html=1;whiteSpace=wrap;connectable=0;strokeColor=inherit;overflow=hidden;fillColor=none;top=0;left=0;bottom=0;right=0;pointerEvents=1;fontSize=16;" vertex="1" parent="WkzwtYQDzA7ovl5EQE6o-73">
          <mxGeometry x="190" width="190" height="60" as="geometry">
            <mxRectangle width="190" height="60" as="alternateBounds" />
          </mxGeometry>
        </mxCell>
        <mxCell id="WkzwtYQDzA7ovl5EQE6o-76" value="color" style="shape=partialRectangle;html=1;whiteSpace=wrap;connectable=0;strokeColor=inherit;overflow=hidden;fillColor=none;top=0;left=0;bottom=0;right=0;pointerEvents=1;fontSize=16;" vertex="1" parent="WkzwtYQDzA7ovl5EQE6o-73">
          <mxGeometry x="380" width="190" height="60" as="geometry">
            <mxRectangle width="190" height="60" as="alternateBounds" />
          </mxGeometry>
        </mxCell>
        <mxCell id="WkzwtYQDzA7ovl5EQE6o-77" value="precio" style="shape=partialRectangle;html=1;whiteSpace=wrap;connectable=0;strokeColor=inherit;overflow=hidden;fillColor=none;top=0;left=0;bottom=0;right=0;pointerEvents=1;fontSize=16;" vertex="1" parent="WkzwtYQDzA7ovl5EQE6o-73">
          <mxGeometry x="570" width="190" height="60" as="geometry">
            <mxRectangle width="190" height="60" as="alternateBounds" />
          </mxGeometry>
        </mxCell>
        <mxCell id="WkzwtYQDzA7ovl5EQE6o-110" value="idCategorÃ­a" style="shape=partialRectangle;html=1;whiteSpace=wrap;connectable=0;strokeColor=inherit;overflow=hidden;fillColor=none;top=0;left=0;bottom=0;right=0;pointerEvents=1;fontSize=16;" vertex="1" parent="WkzwtYQDzA7ovl5EQE6o-73">
          <mxGeometry x="760" width="190" height="60" as="geometry">
            <mxRectangle width="190" height="60" as="alternateBounds" />
          </mxGeometry>
        </mxCell>
        <mxCell id="WkzwtYQDzA7ovl5EQE6o-79" value="" style="shape=tableRow;horizontal=0;startSize=0;swimlaneHead=0;swimlaneBody=0;strokeColor=inherit;top=0;left=0;bottom=0;right=0;collapsible=0;dropTarget=0;fillColor=none;points=[[0,0.5],[1,0.5]];portConstraint=eastwest;fontSize=16;" vertex="1" parent="WkzwtYQDzA7ovl5EQE6o-72">
          <mxGeometry y="90" width="950" height="60" as="geometry" />
        </mxCell>
        <mxCell id="WkzwtYQDzA7ovl5EQE6o-80" value="PK" style="shape=partialRectangle;html=1;whiteSpace=wrap;connectable=0;strokeColor=inherit;overflow=hidden;fillColor=none;top=0;left=0;bottom=0;right=0;pointerEvents=1;fontSize=16;" vertex="1" parent="WkzwtYQDzA7ovl5EQE6o-79">
          <mxGeometry width="190" height="60" as="geometry">
            <mxRectangle width="190" height="60" as="alternateBounds" />
          </mxGeometry>
        </mxCell>
        <mxCell id="WkzwtYQDzA7ovl5EQE6o-81" value="" style="shape=partialRectangle;html=1;whiteSpace=wrap;connectable=0;strokeColor=inherit;overflow=hidden;fillColor=none;top=0;left=0;bottom=0;right=0;pointerEvents=1;fontSize=16;" vertex="1" parent="WkzwtYQDzA7ovl5EQE6o-79">
          <mxGeometry x="190" width="190" height="60" as="geometry">
            <mxRectangle width="190" height="60" as="alternateBounds" />
          </mxGeometry>
        </mxCell>
        <mxCell id="WkzwtYQDzA7ovl5EQE6o-82" value="" style="shape=partialRectangle;html=1;whiteSpace=wrap;connectable=0;strokeColor=inherit;overflow=hidden;fillColor=none;top=0;left=0;bottom=0;right=0;pointerEvents=1;fontSize=16;" vertex="1" parent="WkzwtYQDzA7ovl5EQE6o-79">
          <mxGeometry x="380" width="190" height="60" as="geometry">
            <mxRectangle width="190" height="60" as="alternateBounds" />
          </mxGeometry>
        </mxCell>
        <mxCell id="WkzwtYQDzA7ovl5EQE6o-83" style="shape=partialRectangle;html=1;whiteSpace=wrap;connectable=0;strokeColor=inherit;overflow=hidden;fillColor=none;top=0;left=0;bottom=0;right=0;pointerEvents=1;fontSize=16;" vertex="1" parent="WkzwtYQDzA7ovl5EQE6o-79">
          <mxGeometry x="570" width="190" height="60" as="geometry">
            <mxRectangle width="190" height="60" as="alternateBounds" />
          </mxGeometry>
        </mxCell>
        <mxCell id="WkzwtYQDzA7ovl5EQE6o-111" style="shape=partialRectangle;html=1;whiteSpace=wrap;connectable=0;strokeColor=inherit;overflow=hidden;fillColor=none;top=0;left=0;bottom=0;right=0;pointerEvents=1;fontSize=16;" vertex="1" parent="WkzwtYQDzA7ovl5EQE6o-79">
          <mxGeometry x="760" width="190" height="60" as="geometry">
            <mxRectangle width="190" height="60" as="alternateBounds" />
          </mxGeometry>
        </mxCell>
        <mxCell id="WkzwtYQDzA7ovl5EQE6o-85" value="" style="shape=tableRow;horizontal=0;startSize=0;swimlaneHead=0;swimlaneBody=0;strokeColor=inherit;top=0;left=0;bottom=0;right=0;collapsible=0;dropTarget=0;fillColor=none;points=[[0,0.5],[1,0.5]];portConstraint=eastwest;fontSize=16;" vertex="1" parent="WkzwtYQDzA7ovl5EQE6o-72">
          <mxGeometry y="150" width="950" height="60" as="geometry" />
        </mxCell>
        <mxCell id="WkzwtYQDzA7ovl5EQE6o-86" value="" style="shape=partialRectangle;html=1;whiteSpace=wrap;connectable=0;strokeColor=inherit;overflow=hidden;fillColor=none;top=0;left=0;bottom=0;right=0;pointerEvents=1;fontSize=16;" vertex="1" parent="WkzwtYQDzA7ovl5EQE6o-85">
          <mxGeometry width="190" height="60" as="geometry">
            <mxRectangle width="190" height="60" as="alternateBounds" />
          </mxGeometry>
        </mxCell>
        <mxCell id="WkzwtYQDzA7ovl5EQE6o-87" value="" style="shape=partialRectangle;html=1;whiteSpace=wrap;connectable=0;strokeColor=inherit;overflow=hidden;fillColor=none;top=0;left=0;bottom=0;right=0;pointerEvents=1;fontSize=16;" vertex="1" parent="WkzwtYQDzA7ovl5EQE6o-85">
          <mxGeometry x="190" width="190" height="60" as="geometry">
            <mxRectangle width="190" height="60" as="alternateBounds" />
          </mxGeometry>
        </mxCell>
        <mxCell id="WkzwtYQDzA7ovl5EQE6o-88" value="" style="shape=partialRectangle;html=1;whiteSpace=wrap;connectable=0;strokeColor=inherit;overflow=hidden;fillColor=none;top=0;left=0;bottom=0;right=0;pointerEvents=1;fontSize=16;" vertex="1" parent="WkzwtYQDzA7ovl5EQE6o-85">
          <mxGeometry x="380" width="190" height="60" as="geometry">
            <mxRectangle width="190" height="60" as="alternateBounds" />
          </mxGeometry>
        </mxCell>
        <mxCell id="WkzwtYQDzA7ovl5EQE6o-89" style="shape=partialRectangle;html=1;whiteSpace=wrap;connectable=0;strokeColor=inherit;overflow=hidden;fillColor=none;top=0;left=0;bottom=0;right=0;pointerEvents=1;fontSize=16;" vertex="1" parent="WkzwtYQDzA7ovl5EQE6o-85">
          <mxGeometry x="570" width="190" height="60" as="geometry">
            <mxRectangle width="190" height="60" as="alternateBounds" />
          </mxGeometry>
        </mxCell>
        <mxCell id="WkzwtYQDzA7ovl5EQE6o-112" value="FK.CATEGORÃA" style="shape=partialRectangle;html=1;whiteSpace=wrap;connectable=0;strokeColor=inherit;overflow=hidden;fillColor=none;top=0;left=0;bottom=0;right=0;pointerEvents=1;fontSize=16;" vertex="1" parent="WkzwtYQDzA7ovl5EQE6o-85">
          <mxGeometry x="760" width="190" height="60" as="geometry">
            <mxRectangle width="190" height="60" as="alternateBounds" />
          </mxGeometry>
        </mxCell>
        <mxCell id="WkzwtYQDzA7ovl5EQE6o-91" value="CATEGORÃA" style="shape=table;startSize=30;container=1;collapsible=0;childLayout=tableLayout;strokeColor=default;fontSize=16;" vertex="1" parent="1">
          <mxGeometry x="80" y="890" width="380" height="150" as="geometry" />
        </mxCell>
        <mxCell id="WkzwtYQDzA7ovl5EQE6o-92" value="" style="shape=tableRow;horizontal=0;startSize=0;swimlaneHead=0;swimlaneBody=0;strokeColor=inherit;top=0;left=0;bottom=0;right=0;collapsible=0;dropTarget=0;fillColor=none;points=[[0,0.5],[1,0.5]];portConstraint=eastwest;fontSize=16;" vertex="1" parent="WkzwtYQDzA7ovl5EQE6o-91">
          <mxGeometry y="30" width="380" height="60" as="geometry" />
        </mxCell>
        <mxCell id="WkzwtYQDzA7ovl5EQE6o-93" value="id" style="shape=partialRectangle;html=1;whiteSpace=wrap;connectable=0;strokeColor=inherit;overflow=hidden;fillColor=none;top=0;left=0;bottom=0;right=0;pointerEvents=1;fontSize=16;" vertex="1" parent="WkzwtYQDzA7ovl5EQE6o-92">
          <mxGeometry width="190" height="60" as="geometry">
            <mxRectangle width="190" height="60" as="alternateBounds" />
          </mxGeometry>
        </mxCell>
        <mxCell id="WkzwtYQDzA7ovl5EQE6o-94" value="nombre" style="shape=partialRectangle;html=1;whiteSpace=wrap;connectable=0;strokeColor=inherit;overflow=hidden;fillColor=none;top=0;left=0;bottom=0;right=0;pointerEvents=1;fontSize=16;" vertex="1" parent="WkzwtYQDzA7ovl5EQE6o-92">
          <mxGeometry x="190" width="190" height="60" as="geometry">
            <mxRectangle width="190" height="60" as="alternateBounds" />
          </mxGeometry>
        </mxCell>
        <mxCell id="WkzwtYQDzA7ovl5EQE6o-98" value="" style="shape=tableRow;horizontal=0;startSize=0;swimlaneHead=0;swimlaneBody=0;strokeColor=inherit;top=0;left=0;bottom=0;right=0;collapsible=0;dropTarget=0;fillColor=none;points=[[0,0.5],[1,0.5]];portConstraint=eastwest;fontSize=16;" vertex="1" parent="WkzwtYQDzA7ovl5EQE6o-91">
          <mxGeometry y="90" width="380" height="60" as="geometry" />
        </mxCell>
        <mxCell id="WkzwtYQDzA7ovl5EQE6o-99" value="PK" style="shape=partialRectangle;html=1;whiteSpace=wrap;connectable=0;strokeColor=inherit;overflow=hidden;fillColor=none;top=0;left=0;bottom=0;right=0;pointerEvents=1;fontSize=16;" vertex="1" parent="WkzwtYQDzA7ovl5EQE6o-98">
          <mxGeometry width="190" height="60" as="geometry">
            <mxRectangle width="190" height="60" as="alternateBounds" />
          </mxGeometry>
        </mxCell>
        <mxCell id="WkzwtYQDzA7ovl5EQE6o-100" value="" style="shape=partialRectangle;html=1;whiteSpace=wrap;connectable=0;strokeColor=inherit;overflow=hidden;fillColor=none;top=0;left=0;bottom=0;right=0;pointerEvents=1;fontSize=16;" vertex="1" parent="WkzwtYQDzA7ovl5EQE6o-98">
          <mxGeometry x="190" width="190" height="60" as="geometry">
            <mxRectangle width="190" height="60" as="alternateBounds" />
          </mxGeometry>
        </mxCell>
      </root>
    </mxGraphModel>
  </diagram>
  <diagram id="5kXaHQhNCDTnT3KPHLMl" name="Ej4">
    <mxGraphModel dx="1140" dy="1392" grid="1" gridSize="10" guides="1" tooltips="1" connect="1" arrows="1" fold="1" page="1" pageScale="1" pageWidth="827" pageHeight="1169" math="0" shadow="0">
      <root>
        <mxCell id="0" />
        <mxCell id="1" parent="0" />
        <mxCell id="Eo_9yfVZdQ0ogXxYjUO9-1" value="PROYECTO_INVESTIGACIÃN" style="shape=table;startSize=30;container=1;collapsible=0;childLayout=tableLayout;strokeColor=default;fontSize=16;" vertex="1" parent="1">
          <mxGeometry x="70" y="90" width="1520" height="210" as="geometry" />
        </mxCell>
        <mxCell id="Eo_9yfVZdQ0ogXxYjUO9-2" value="" style="shape=tableRow;horizontal=0;startSize=0;swimlaneHead=0;swimlaneBody=0;strokeColor=inherit;top=0;left=0;bottom=0;right=0;collapsible=0;dropTarget=0;fillColor=none;points=[[0,0.5],[1,0.5]];portConstraint=eastwest;fontSize=16;" vertex="1" parent="Eo_9yfVZdQ0ogXxYjUO9-1">
          <mxGeometry y="30" width="1520" height="60" as="geometry" />
        </mxCell>
        <mxCell id="Eo_9yfVZdQ0ogXxYjUO9-3" value="id" style="shape=partialRectangle;html=1;whiteSpace=wrap;connectable=0;strokeColor=inherit;overflow=hidden;fillColor=none;top=0;left=0;bottom=0;right=0;pointerEvents=1;fontSize=16;" vertex="1" parent="Eo_9yfVZdQ0ogXxYjUO9-2">
          <mxGeometry width="190" height="60" as="geometry">
            <mxRectangle width="190" height="60" as="alternateBounds" />
          </mxGeometry>
        </mxCell>
        <mxCell id="Eo_9yfVZdQ0ogXxYjUO9-4" value="nombre" style="shape=partialRectangle;html=1;whiteSpace=wrap;connectable=0;strokeColor=inherit;overflow=hidden;fillColor=none;top=0;left=0;bottom=0;right=0;pointerEvents=1;fontSize=16;" vertex="1" parent="Eo_9yfVZdQ0ogXxYjUO9-2">
          <mxGeometry x="190" width="190" height="60" as="geometry">
            <mxRectangle width="190" height="60" as="alternateBounds" />
          </mxGeometry>
        </mxCell>
        <mxCell id="Eo_9yfVZdQ0ogXxYjUO9-5" value="presupuesto" style="shape=partialRectangle;html=1;whiteSpace=wrap;connectable=0;strokeColor=inherit;overflow=hidden;fillColor=none;top=0;left=0;bottom=0;right=0;pointerEvents=1;fontSize=16;" vertex="1" parent="Eo_9yfVZdQ0ogXxYjUO9-2">
          <mxGeometry x="380" width="190" height="60" as="geometry">
            <mxRectangle width="190" height="60" as="alternateBounds" />
          </mxGeometry>
        </mxCell>
        <mxCell id="Eo_9yfVZdQ0ogXxYjUO9-6" value="programa" style="shape=partialRectangle;html=1;whiteSpace=wrap;connectable=0;strokeColor=inherit;overflow=hidden;fillColor=none;top=0;left=0;bottom=0;right=0;pointerEvents=1;fontSize=16;" vertex="1" parent="Eo_9yfVZdQ0ogXxYjUO9-2">
          <mxGeometry x="570" width="190" height="60" as="geometry">
            <mxRectangle width="190" height="60" as="alternateBounds" />
          </mxGeometry>
        </mxCell>
        <mxCell id="Eo_9yfVZdQ0ogXxYjUO9-7" value="f_inicio" style="shape=partialRectangle;html=1;whiteSpace=wrap;connectable=0;strokeColor=inherit;overflow=hidden;fillColor=none;top=0;left=0;bottom=0;right=0;pointerEvents=1;fontSize=16;" vertex="1" parent="Eo_9yfVZdQ0ogXxYjUO9-2">
          <mxGeometry x="760" width="190" height="60" as="geometry">
            <mxRectangle width="190" height="60" as="alternateBounds" />
          </mxGeometry>
        </mxCell>
        <mxCell id="Eo_9yfVZdQ0ogXxYjUO9-106" value="f_fin" style="shape=partialRectangle;html=1;whiteSpace=wrap;connectable=0;strokeColor=inherit;overflow=hidden;fillColor=none;top=0;left=0;bottom=0;right=0;pointerEvents=1;fontSize=16;" vertex="1" parent="Eo_9yfVZdQ0ogXxYjUO9-2">
          <mxGeometry x="950" width="190" height="60" as="geometry">
            <mxRectangle width="190" height="60" as="alternateBounds" />
          </mxGeometry>
        </mxCell>
        <mxCell id="Eo_9yfVZdQ0ogXxYjUO9-108" value="descripciÃ³n" style="shape=partialRectangle;html=1;whiteSpace=wrap;connectable=0;strokeColor=inherit;overflow=hidden;fillColor=none;top=0;left=0;bottom=0;right=0;pointerEvents=1;fontSize=16;" vertex="1" parent="Eo_9yfVZdQ0ogXxYjUO9-2">
          <mxGeometry x="1140" width="190" height="60" as="geometry">
            <mxRectangle width="190" height="60" as="alternateBounds" />
          </mxGeometry>
        </mxCell>
        <mxCell id="Eo_9yfVZdQ0ogXxYjUO9-126" value="idDoctor" style="shape=partialRectangle;html=1;whiteSpace=wrap;connectable=0;strokeColor=inherit;overflow=hidden;fillColor=none;top=0;left=0;bottom=0;right=0;pointerEvents=1;fontSize=16;" vertex="1" parent="Eo_9yfVZdQ0ogXxYjUO9-2">
          <mxGeometry x="1330" width="190" height="60" as="geometry">
            <mxRectangle width="190" height="60" as="alternateBounds" />
          </mxGeometry>
        </mxCell>
        <mxCell id="Eo_9yfVZdQ0ogXxYjUO9-8" value="" style="shape=tableRow;horizontal=0;startSize=0;swimlaneHead=0;swimlaneBody=0;strokeColor=inherit;top=0;left=0;bottom=0;right=0;collapsible=0;dropTarget=0;fillColor=none;points=[[0,0.5],[1,0.5]];portConstraint=eastwest;fontSize=16;" vertex="1" parent="Eo_9yfVZdQ0ogXxYjUO9-1">
          <mxGeometry y="90" width="1520" height="60" as="geometry" />
        </mxCell>
        <mxCell id="Eo_9yfVZdQ0ogXxYjUO9-9" value="PK" style="shape=partialRectangle;html=1;whiteSpace=wrap;connectable=0;strokeColor=inherit;overflow=hidden;fillColor=none;top=0;left=0;bottom=0;right=0;pointerEvents=1;fontSize=16;" vertex="1" parent="Eo_9yfVZdQ0ogXxYjUO9-8">
          <mxGeometry width="190" height="60" as="geometry">
            <mxRectangle width="190" height="60" as="alternateBounds" />
          </mxGeometry>
        </mxCell>
        <mxCell id="Eo_9yfVZdQ0ogXxYjUO9-10" value="" style="shape=partialRectangle;html=1;whiteSpace=wrap;connectable=0;strokeColor=inherit;overflow=hidden;fillColor=none;top=0;left=0;bottom=0;right=0;pointerEvents=1;fontSize=16;" vertex="1" parent="Eo_9yfVZdQ0ogXxYjUO9-8">
          <mxGeometry x="190" width="190" height="60" as="geometry">
            <mxRectangle width="190" height="60" as="alternateBounds" />
          </mxGeometry>
        </mxCell>
        <mxCell id="Eo_9yfVZdQ0ogXxYjUO9-11" value="" style="shape=partialRectangle;html=1;whiteSpace=wrap;connectable=0;strokeColor=inherit;overflow=hidden;fillColor=none;top=0;left=0;bottom=0;right=0;pointerEvents=1;fontSize=16;" vertex="1" parent="Eo_9yfVZdQ0ogXxYjUO9-8">
          <mxGeometry x="380" width="190" height="60" as="geometry">
            <mxRectangle width="190" height="60" as="alternateBounds" />
          </mxGeometry>
        </mxCell>
        <mxCell id="Eo_9yfVZdQ0ogXxYjUO9-12" style="shape=partialRectangle;html=1;whiteSpace=wrap;connectable=0;strokeColor=inherit;overflow=hidden;fillColor=none;top=0;left=0;bottom=0;right=0;pointerEvents=1;fontSize=16;" vertex="1" parent="Eo_9yfVZdQ0ogXxYjUO9-8">
          <mxGeometry x="570" width="190" height="60" as="geometry">
            <mxRectangle width="190" height="60" as="alternateBounds" />
          </mxGeometry>
        </mxCell>
        <mxCell id="Eo_9yfVZdQ0ogXxYjUO9-13" style="shape=partialRectangle;html=1;whiteSpace=wrap;connectable=0;strokeColor=inherit;overflow=hidden;fillColor=none;top=0;left=0;bottom=0;right=0;pointerEvents=1;fontSize=16;" vertex="1" parent="Eo_9yfVZdQ0ogXxYjUO9-8">
          <mxGeometry x="760" width="190" height="60" as="geometry">
            <mxRectangle width="190" height="60" as="alternateBounds" />
          </mxGeometry>
        </mxCell>
        <mxCell id="Eo_9yfVZdQ0ogXxYjUO9-107" style="shape=partialRectangle;html=1;whiteSpace=wrap;connectable=0;strokeColor=inherit;overflow=hidden;fillColor=none;top=0;left=0;bottom=0;right=0;pointerEvents=1;fontSize=16;" vertex="1" parent="Eo_9yfVZdQ0ogXxYjUO9-8">
          <mxGeometry x="950" width="190" height="60" as="geometry">
            <mxRectangle width="190" height="60" as="alternateBounds" />
          </mxGeometry>
        </mxCell>
        <mxCell id="Eo_9yfVZdQ0ogXxYjUO9-109" style="shape=partialRectangle;html=1;whiteSpace=wrap;connectable=0;strokeColor=inherit;overflow=hidden;fillColor=none;top=0;left=0;bottom=0;right=0;pointerEvents=1;fontSize=16;" vertex="1" parent="Eo_9yfVZdQ0ogXxYjUO9-8">
          <mxGeometry x="1140" width="190" height="60" as="geometry">
            <mxRectangle width="190" height="60" as="alternateBounds" />
          </mxGeometry>
        </mxCell>
        <mxCell id="Eo_9yfVZdQ0ogXxYjUO9-127" style="shape=partialRectangle;html=1;whiteSpace=wrap;connectable=0;strokeColor=inherit;overflow=hidden;fillColor=none;top=0;left=0;bottom=0;right=0;pointerEvents=1;fontSize=16;" vertex="1" parent="Eo_9yfVZdQ0ogXxYjUO9-8">
          <mxGeometry x="1330" width="190" height="60" as="geometry">
            <mxRectangle width="190" height="60" as="alternateBounds" />
          </mxGeometry>
        </mxCell>
        <mxCell id="Eo_9yfVZdQ0ogXxYjUO9-128" style="shape=tableRow;horizontal=0;startSize=0;swimlaneHead=0;swimlaneBody=0;strokeColor=inherit;top=0;left=0;bottom=0;right=0;collapsible=0;dropTarget=0;fillColor=none;points=[[0,0.5],[1,0.5]];portConstraint=eastwest;fontSize=16;" vertex="1" parent="Eo_9yfVZdQ0ogXxYjUO9-1">
          <mxGeometry y="150" width="1520" height="60" as="geometry" />
        </mxCell>
        <mxCell id="Eo_9yfVZdQ0ogXxYjUO9-129" style="shape=partialRectangle;html=1;whiteSpace=wrap;connectable=0;strokeColor=inherit;overflow=hidden;fillColor=none;top=0;left=0;bottom=0;right=0;pointerEvents=1;fontSize=16;" vertex="1" parent="Eo_9yfVZdQ0ogXxYjUO9-128">
          <mxGeometry width="190" height="60" as="geometry">
            <mxRectangle width="190" height="60" as="alternateBounds" />
          </mxGeometry>
        </mxCell>
        <mxCell id="Eo_9yfVZdQ0ogXxYjUO9-130" style="shape=partialRectangle;html=1;whiteSpace=wrap;connectable=0;strokeColor=inherit;overflow=hidden;fillColor=none;top=0;left=0;bottom=0;right=0;pointerEvents=1;fontSize=16;" vertex="1" parent="Eo_9yfVZdQ0ogXxYjUO9-128">
          <mxGeometry x="190" width="190" height="60" as="geometry">
            <mxRectangle width="190" height="60" as="alternateBounds" />
          </mxGeometry>
        </mxCell>
        <mxCell id="Eo_9yfVZdQ0ogXxYjUO9-131" style="shape=partialRectangle;html=1;whiteSpace=wrap;connectable=0;strokeColor=inherit;overflow=hidden;fillColor=none;top=0;left=0;bottom=0;right=0;pointerEvents=1;fontSize=16;" vertex="1" parent="Eo_9yfVZdQ0ogXxYjUO9-128">
          <mxGeometry x="380" width="190" height="60" as="geometry">
            <mxRectangle width="190" height="60" as="alternateBounds" />
          </mxGeometry>
        </mxCell>
        <mxCell id="Eo_9yfVZdQ0ogXxYjUO9-132" style="shape=partialRectangle;html=1;whiteSpace=wrap;connectable=0;strokeColor=inherit;overflow=hidden;fillColor=none;top=0;left=0;bottom=0;right=0;pointerEvents=1;fontSize=16;" vertex="1" parent="Eo_9yfVZdQ0ogXxYjUO9-128">
          <mxGeometry x="570" width="190" height="60" as="geometry">
            <mxRectangle width="190" height="60" as="alternateBounds" />
          </mxGeometry>
        </mxCell>
        <mxCell id="Eo_9yfVZdQ0ogXxYjUO9-133" style="shape=partialRectangle;html=1;whiteSpace=wrap;connectable=0;strokeColor=inherit;overflow=hidden;fillColor=none;top=0;left=0;bottom=0;right=0;pointerEvents=1;fontSize=16;" vertex="1" parent="Eo_9yfVZdQ0ogXxYjUO9-128">
          <mxGeometry x="760" width="190" height="60" as="geometry">
            <mxRectangle width="190" height="60" as="alternateBounds" />
          </mxGeometry>
        </mxCell>
        <mxCell id="Eo_9yfVZdQ0ogXxYjUO9-134" style="shape=partialRectangle;html=1;whiteSpace=wrap;connectable=0;strokeColor=inherit;overflow=hidden;fillColor=none;top=0;left=0;bottom=0;right=0;pointerEvents=1;fontSize=16;" vertex="1" parent="Eo_9yfVZdQ0ogXxYjUO9-128">
          <mxGeometry x="950" width="190" height="60" as="geometry">
            <mxRectangle width="190" height="60" as="alternateBounds" />
          </mxGeometry>
        </mxCell>
        <mxCell id="Eo_9yfVZdQ0ogXxYjUO9-135" style="shape=partialRectangle;html=1;whiteSpace=wrap;connectable=0;strokeColor=inherit;overflow=hidden;fillColor=none;top=0;left=0;bottom=0;right=0;pointerEvents=1;fontSize=16;" vertex="1" parent="Eo_9yfVZdQ0ogXxYjUO9-128">
          <mxGeometry x="1140" width="190" height="60" as="geometry">
            <mxRectangle width="190" height="60" as="alternateBounds" />
          </mxGeometry>
        </mxCell>
        <mxCell id="Eo_9yfVZdQ0ogXxYjUO9-136" value="FK.PROFESOR" style="shape=partialRectangle;html=1;whiteSpace=wrap;connectable=0;strokeColor=inherit;overflow=hidden;fillColor=none;top=0;left=0;bottom=0;right=0;pointerEvents=1;fontSize=16;" vertex="1" parent="Eo_9yfVZdQ0ogXxYjUO9-128">
          <mxGeometry x="1330" width="190" height="60" as="geometry">
            <mxRectangle width="190" height="60" as="alternateBounds" />
          </mxGeometry>
        </mxCell>
        <mxCell id="Eo_9yfVZdQ0ogXxYjUO9-14" value="PROFESOR" style="shape=table;startSize=30;container=1;collapsible=0;childLayout=tableLayout;strokeColor=default;fontSize=16;" vertex="1" parent="1">
          <mxGeometry x="80" y="630" width="1330" height="150" as="geometry" />
        </mxCell>
        <mxCell id="Eo_9yfVZdQ0ogXxYjUO9-15" value="" style="shape=tableRow;horizontal=0;startSize=0;swimlaneHead=0;swimlaneBody=0;strokeColor=inherit;top=0;left=0;bottom=0;right=0;collapsible=0;dropTarget=0;fillColor=none;points=[[0,0.5],[1,0.5]];portConstraint=eastwest;fontSize=16;" vertex="1" parent="Eo_9yfVZdQ0ogXxYjUO9-14">
          <mxGeometry y="30" width="1330" height="60" as="geometry" />
        </mxCell>
        <mxCell id="Eo_9yfVZdQ0ogXxYjUO9-16" value="id" style="shape=partialRectangle;html=1;whiteSpace=wrap;connectable=0;strokeColor=inherit;overflow=hidden;fillColor=none;top=0;left=0;bottom=0;right=0;pointerEvents=1;fontSize=16;" vertex="1" parent="Eo_9yfVZdQ0ogXxYjUO9-15">
          <mxGeometry width="190" height="60" as="geometry">
            <mxRectangle width="190" height="60" as="alternateBounds" />
          </mxGeometry>
        </mxCell>
        <mxCell id="Eo_9yfVZdQ0ogXxYjUO9-17" value="nombre" style="shape=partialRectangle;html=1;whiteSpace=wrap;connectable=0;strokeColor=inherit;overflow=hidden;fillColor=none;top=0;left=0;bottom=0;right=0;pointerEvents=1;fontSize=16;" vertex="1" parent="Eo_9yfVZdQ0ogXxYjUO9-15">
          <mxGeometry x="190" width="190" height="60" as="geometry">
            <mxRectangle width="190" height="60" as="alternateBounds" />
          </mxGeometry>
        </mxCell>
        <mxCell id="Eo_9yfVZdQ0ogXxYjUO9-18" value="apellido1" style="shape=partialRectangle;html=1;whiteSpace=wrap;connectable=0;strokeColor=inherit;overflow=hidden;fillColor=none;top=0;left=0;bottom=0;right=0;pointerEvents=1;fontSize=16;" vertex="1" parent="Eo_9yfVZdQ0ogXxYjUO9-15">
          <mxGeometry x="380" width="190" height="60" as="geometry">
            <mxRectangle width="190" height="60" as="alternateBounds" />
          </mxGeometry>
        </mxCell>
        <mxCell id="Eo_9yfVZdQ0ogXxYjUO9-116" value="apellido2" style="shape=partialRectangle;html=1;whiteSpace=wrap;connectable=0;strokeColor=inherit;overflow=hidden;fillColor=none;top=0;left=0;bottom=0;right=0;pointerEvents=1;fontSize=16;" vertex="1" parent="Eo_9yfVZdQ0ogXxYjUO9-15">
          <mxGeometry x="570" width="190" height="60" as="geometry">
            <mxRectangle width="190" height="60" as="alternateBounds" />
          </mxGeometry>
        </mxCell>
        <mxCell id="Eo_9yfVZdQ0ogXxYjUO9-19" value="despacho" style="shape=partialRectangle;html=1;whiteSpace=wrap;connectable=0;strokeColor=inherit;overflow=hidden;fillColor=none;top=0;left=0;bottom=0;right=0;pointerEvents=1;fontSize=16;" vertex="1" parent="Eo_9yfVZdQ0ogXxYjUO9-15">
          <mxGeometry x="760" width="190" height="60" as="geometry">
            <mxRectangle width="190" height="60" as="alternateBounds" />
          </mxGeometry>
        </mxCell>
        <mxCell id="Eo_9yfVZdQ0ogXxYjUO9-20" value="telÃ©fono" style="shape=partialRectangle;html=1;whiteSpace=wrap;connectable=0;strokeColor=inherit;overflow=hidden;fillColor=none;top=0;left=0;bottom=0;right=0;pointerEvents=1;fontSize=16;" vertex="1" parent="Eo_9yfVZdQ0ogXxYjUO9-15">
          <mxGeometry x="950" width="190" height="60" as="geometry">
            <mxRectangle width="190" height="60" as="alternateBounds" />
          </mxGeometry>
        </mxCell>
        <mxCell id="Eo_9yfVZdQ0ogXxYjUO9-124" value="tipo" style="shape=partialRectangle;html=1;whiteSpace=wrap;connectable=0;strokeColor=inherit;overflow=hidden;fillColor=none;top=0;left=0;bottom=0;right=0;pointerEvents=1;fontSize=16;" vertex="1" parent="Eo_9yfVZdQ0ogXxYjUO9-15">
          <mxGeometry x="1140" width="190" height="60" as="geometry">
            <mxRectangle width="190" height="60" as="alternateBounds" />
          </mxGeometry>
        </mxCell>
        <mxCell id="Eo_9yfVZdQ0ogXxYjUO9-21" value="" style="shape=tableRow;horizontal=0;startSize=0;swimlaneHead=0;swimlaneBody=0;strokeColor=inherit;top=0;left=0;bottom=0;right=0;collapsible=0;dropTarget=0;fillColor=none;points=[[0,0.5],[1,0.5]];portConstraint=eastwest;fontSize=16;" vertex="1" parent="Eo_9yfVZdQ0ogXxYjUO9-14">
          <mxGeometry y="90" width="1330" height="60" as="geometry" />
        </mxCell>
        <mxCell id="Eo_9yfVZdQ0ogXxYjUO9-22" value="PK" style="shape=partialRectangle;html=1;whiteSpace=wrap;connectable=0;strokeColor=inherit;overflow=hidden;fillColor=none;top=0;left=0;bottom=0;right=0;pointerEvents=1;fontSize=16;" vertex="1" parent="Eo_9yfVZdQ0ogXxYjUO9-21">
          <mxGeometry width="190" height="60" as="geometry">
            <mxRectangle width="190" height="60" as="alternateBounds" />
          </mxGeometry>
        </mxCell>
        <mxCell id="Eo_9yfVZdQ0ogXxYjUO9-23" value="" style="shape=partialRectangle;html=1;whiteSpace=wrap;connectable=0;strokeColor=inherit;overflow=hidden;fillColor=none;top=0;left=0;bottom=0;right=0;pointerEvents=1;fontSize=16;" vertex="1" parent="Eo_9yfVZdQ0ogXxYjUO9-21">
          <mxGeometry x="190" width="190" height="60" as="geometry">
            <mxRectangle width="190" height="60" as="alternateBounds" />
          </mxGeometry>
        </mxCell>
        <mxCell id="Eo_9yfVZdQ0ogXxYjUO9-24" value="" style="shape=partialRectangle;html=1;whiteSpace=wrap;connectable=0;strokeColor=inherit;overflow=hidden;fillColor=none;top=0;left=0;bottom=0;right=0;pointerEvents=1;fontSize=16;" vertex="1" parent="Eo_9yfVZdQ0ogXxYjUO9-21">
          <mxGeometry x="380" width="190" height="60" as="geometry">
            <mxRectangle width="190" height="60" as="alternateBounds" />
          </mxGeometry>
        </mxCell>
        <mxCell id="Eo_9yfVZdQ0ogXxYjUO9-117" style="shape=partialRectangle;html=1;whiteSpace=wrap;connectable=0;strokeColor=inherit;overflow=hidden;fillColor=none;top=0;left=0;bottom=0;right=0;pointerEvents=1;fontSize=16;" vertex="1" parent="Eo_9yfVZdQ0ogXxYjUO9-21">
          <mxGeometry x="570" width="190" height="60" as="geometry">
            <mxRectangle width="190" height="60" as="alternateBounds" />
          </mxGeometry>
        </mxCell>
        <mxCell id="Eo_9yfVZdQ0ogXxYjUO9-25" style="shape=partialRectangle;html=1;whiteSpace=wrap;connectable=0;strokeColor=inherit;overflow=hidden;fillColor=none;top=0;left=0;bottom=0;right=0;pointerEvents=1;fontSize=16;" vertex="1" parent="Eo_9yfVZdQ0ogXxYjUO9-21">
          <mxGeometry x="760" width="190" height="60" as="geometry">
            <mxRectangle width="190" height="60" as="alternateBounds" />
          </mxGeometry>
        </mxCell>
        <mxCell id="Eo_9yfVZdQ0ogXxYjUO9-26" style="shape=partialRectangle;html=1;whiteSpace=wrap;connectable=0;strokeColor=inherit;overflow=hidden;fillColor=none;top=0;left=0;bottom=0;right=0;pointerEvents=1;fontSize=16;" vertex="1" parent="Eo_9yfVZdQ0ogXxYjUO9-21">
          <mxGeometry x="950" width="190" height="60" as="geometry">
            <mxRectangle width="190" height="60" as="alternateBounds" />
          </mxGeometry>
        </mxCell>
        <mxCell id="Eo_9yfVZdQ0ogXxYjUO9-125" style="shape=partialRectangle;html=1;whiteSpace=wrap;connectable=0;strokeColor=inherit;overflow=hidden;fillColor=none;top=0;left=0;bottom=0;right=0;pointerEvents=1;fontSize=16;" vertex="1" parent="Eo_9yfVZdQ0ogXxYjUO9-21">
          <mxGeometry x="1140" width="190" height="60" as="geometry">
            <mxRectangle width="190" height="60" as="alternateBounds" />
          </mxGeometry>
        </mxCell>
        <mxCell id="Eo_9yfVZdQ0ogXxYjUO9-27" value="PUBLICACIÃN" style="shape=table;startSize=30;container=1;collapsible=0;childLayout=tableLayout;strokeColor=default;fontSize=16;" vertex="1" parent="1">
          <mxGeometry x="85" y="1095" width="570" height="150" as="geometry" />
        </mxCell>
        <mxCell id="Eo_9yfVZdQ0ogXxYjUO9-28" value="" style="shape=tableRow;horizontal=0;startSize=0;swimlaneHead=0;swimlaneBody=0;strokeColor=inherit;top=0;left=0;bottom=0;right=0;collapsible=0;dropTarget=0;fillColor=none;points=[[0,0.5],[1,0.5]];portConstraint=eastwest;fontSize=16;" vertex="1" parent="Eo_9yfVZdQ0ogXxYjUO9-27">
          <mxGeometry y="30" width="570" height="60" as="geometry" />
        </mxCell>
        <mxCell id="Eo_9yfVZdQ0ogXxYjUO9-29" value="id" style="shape=partialRectangle;html=1;whiteSpace=wrap;connectable=0;strokeColor=inherit;overflow=hidden;fillColor=none;top=0;left=0;bottom=0;right=0;pointerEvents=1;fontSize=16;" vertex="1" parent="Eo_9yfVZdQ0ogXxYjUO9-28">
          <mxGeometry width="190" height="60" as="geometry">
            <mxRectangle width="190" height="60" as="alternateBounds" />
          </mxGeometry>
        </mxCell>
        <mxCell id="Eo_9yfVZdQ0ogXxYjUO9-30" value="tÃ­tulo" style="shape=partialRectangle;html=1;whiteSpace=wrap;connectable=0;strokeColor=inherit;overflow=hidden;fillColor=none;top=0;left=0;bottom=0;right=0;pointerEvents=1;fontSize=16;" vertex="1" parent="Eo_9yfVZdQ0ogXxYjUO9-28">
          <mxGeometry x="190" width="190" height="60" as="geometry">
            <mxRectangle width="190" height="60" as="alternateBounds" />
          </mxGeometry>
        </mxCell>
        <mxCell id="Eo_9yfVZdQ0ogXxYjUO9-184" value="tipo" style="shape=partialRectangle;html=1;whiteSpace=wrap;connectable=0;strokeColor=inherit;overflow=hidden;fillColor=none;top=0;left=0;bottom=0;right=0;pointerEvents=1;fontSize=16;" vertex="1" parent="Eo_9yfVZdQ0ogXxYjUO9-28">
          <mxGeometry x="380" width="190" height="60" as="geometry">
            <mxRectangle width="190" height="60" as="alternateBounds" />
          </mxGeometry>
        </mxCell>
        <mxCell id="Eo_9yfVZdQ0ogXxYjUO9-34" value="" style="shape=tableRow;horizontal=0;startSize=0;swimlaneHead=0;swimlaneBody=0;strokeColor=inherit;top=0;left=0;bottom=0;right=0;collapsible=0;dropTarget=0;fillColor=none;points=[[0,0.5],[1,0.5]];portConstraint=eastwest;fontSize=16;" vertex="1" parent="Eo_9yfVZdQ0ogXxYjUO9-27">
          <mxGeometry y="90" width="570" height="60" as="geometry" />
        </mxCell>
        <mxCell id="Eo_9yfVZdQ0ogXxYjUO9-35" value="PK" style="shape=partialRectangle;html=1;whiteSpace=wrap;connectable=0;strokeColor=inherit;overflow=hidden;fillColor=none;top=0;left=0;bottom=0;right=0;pointerEvents=1;fontSize=16;" vertex="1" parent="Eo_9yfVZdQ0ogXxYjUO9-34">
          <mxGeometry width="190" height="60" as="geometry">
            <mxRectangle width="190" height="60" as="alternateBounds" />
          </mxGeometry>
        </mxCell>
        <mxCell id="Eo_9yfVZdQ0ogXxYjUO9-36" value="" style="shape=partialRectangle;html=1;whiteSpace=wrap;connectable=0;strokeColor=inherit;overflow=hidden;fillColor=none;top=0;left=0;bottom=0;right=0;pointerEvents=1;fontSize=16;" vertex="1" parent="Eo_9yfVZdQ0ogXxYjUO9-34">
          <mxGeometry x="190" width="190" height="60" as="geometry">
            <mxRectangle width="190" height="60" as="alternateBounds" />
          </mxGeometry>
        </mxCell>
        <mxCell id="Eo_9yfVZdQ0ogXxYjUO9-185" style="shape=partialRectangle;html=1;whiteSpace=wrap;connectable=0;strokeColor=inherit;overflow=hidden;fillColor=none;top=0;left=0;bottom=0;right=0;pointerEvents=1;fontSize=16;" vertex="1" parent="Eo_9yfVZdQ0ogXxYjUO9-34">
          <mxGeometry x="380" width="190" height="60" as="geometry">
            <mxRectangle width="190" height="60" as="alternateBounds" />
          </mxGeometry>
        </mxCell>
        <mxCell id="Eo_9yfVZdQ0ogXxYjUO9-40" value="ESCRIBE" style="shape=table;startSize=30;container=1;collapsible=0;childLayout=tableLayout;strokeColor=default;fontSize=16;" vertex="1" parent="1">
          <mxGeometry x="85" y="830" width="380" height="210" as="geometry" />
        </mxCell>
        <mxCell id="Eo_9yfVZdQ0ogXxYjUO9-41" value="" style="shape=tableRow;horizontal=0;startSize=0;swimlaneHead=0;swimlaneBody=0;strokeColor=inherit;top=0;left=0;bottom=0;right=0;collapsible=0;dropTarget=0;fillColor=none;points=[[0,0.5],[1,0.5]];portConstraint=eastwest;fontSize=16;" vertex="1" parent="Eo_9yfVZdQ0ogXxYjUO9-40">
          <mxGeometry y="30" width="380" height="60" as="geometry" />
        </mxCell>
        <mxCell id="Eo_9yfVZdQ0ogXxYjUO9-42" value="idProfesor" style="shape=partialRectangle;html=1;whiteSpace=wrap;connectable=0;strokeColor=inherit;overflow=hidden;fillColor=none;top=0;left=0;bottom=0;right=0;pointerEvents=1;fontSize=16;" vertex="1" parent="Eo_9yfVZdQ0ogXxYjUO9-41">
          <mxGeometry width="190" height="60" as="geometry">
            <mxRectangle width="190" height="60" as="alternateBounds" />
          </mxGeometry>
        </mxCell>
        <mxCell id="Eo_9yfVZdQ0ogXxYjUO9-43" value="idPublicaciÃ³n" style="shape=partialRectangle;html=1;whiteSpace=wrap;connectable=0;strokeColor=inherit;overflow=hidden;fillColor=none;top=0;left=0;bottom=0;right=0;pointerEvents=1;fontSize=16;" vertex="1" parent="Eo_9yfVZdQ0ogXxYjUO9-41">
          <mxGeometry x="190" width="190" height="60" as="geometry">
            <mxRectangle width="190" height="60" as="alternateBounds" />
          </mxGeometry>
        </mxCell>
        <mxCell id="Eo_9yfVZdQ0ogXxYjUO9-47" value="" style="shape=tableRow;horizontal=0;startSize=0;swimlaneHead=0;swimlaneBody=0;strokeColor=inherit;top=0;left=0;bottom=0;right=0;collapsible=0;dropTarget=0;fillColor=none;points=[[0,0.5],[1,0.5]];portConstraint=eastwest;fontSize=16;" vertex="1" parent="Eo_9yfVZdQ0ogXxYjUO9-40">
          <mxGeometry y="90" width="380" height="60" as="geometry" />
        </mxCell>
        <mxCell id="Eo_9yfVZdQ0ogXxYjUO9-48" value="PK" style="shape=partialRectangle;html=1;whiteSpace=wrap;connectable=0;strokeColor=inherit;overflow=hidden;fillColor=none;top=0;left=0;bottom=0;right=0;pointerEvents=1;fontSize=16;rowspan=1;colspan=2;" vertex="1" parent="Eo_9yfVZdQ0ogXxYjUO9-47">
          <mxGeometry width="380" height="60" as="geometry">
            <mxRectangle width="190" height="60" as="alternateBounds" />
          </mxGeometry>
        </mxCell>
        <mxCell id="Eo_9yfVZdQ0ogXxYjUO9-49" value="" style="shape=partialRectangle;html=1;whiteSpace=wrap;connectable=0;strokeColor=inherit;overflow=hidden;fillColor=none;top=0;left=0;bottom=0;right=0;pointerEvents=1;fontSize=16;" vertex="1" visible="0" parent="Eo_9yfVZdQ0ogXxYjUO9-47">
          <mxGeometry x="190" width="190" height="60" as="geometry">
            <mxRectangle width="190" height="60" as="alternateBounds" />
          </mxGeometry>
        </mxCell>
        <mxCell id="Eo_9yfVZdQ0ogXxYjUO9-118" style="shape=tableRow;horizontal=0;startSize=0;swimlaneHead=0;swimlaneBody=0;strokeColor=inherit;top=0;left=0;bottom=0;right=0;collapsible=0;dropTarget=0;fillColor=none;points=[[0,0.5],[1,0.5]];portConstraint=eastwest;fontSize=16;" vertex="1" parent="Eo_9yfVZdQ0ogXxYjUO9-40">
          <mxGeometry y="150" width="380" height="60" as="geometry" />
        </mxCell>
        <mxCell id="Eo_9yfVZdQ0ogXxYjUO9-119" value="FK.PROFESOR" style="shape=partialRectangle;html=1;whiteSpace=wrap;connectable=0;strokeColor=inherit;overflow=hidden;fillColor=none;top=0;left=0;bottom=0;right=0;pointerEvents=1;fontSize=16;" vertex="1" parent="Eo_9yfVZdQ0ogXxYjUO9-118">
          <mxGeometry width="190" height="60" as="geometry">
            <mxRectangle width="190" height="60" as="alternateBounds" />
          </mxGeometry>
        </mxCell>
        <mxCell id="Eo_9yfVZdQ0ogXxYjUO9-120" value="FK.PUBLICACIÃN" style="shape=partialRectangle;html=1;whiteSpace=wrap;connectable=0;strokeColor=inherit;overflow=hidden;fillColor=none;top=0;left=0;bottom=0;right=0;pointerEvents=1;fontSize=16;" vertex="1" parent="Eo_9yfVZdQ0ogXxYjUO9-118">
          <mxGeometry x="190" width="190" height="60" as="geometry">
            <mxRectangle width="190" height="60" as="alternateBounds" />
          </mxGeometry>
        </mxCell>
        <mxCell id="Eo_9yfVZdQ0ogXxYjUO9-67" value="REVISTA" style="shape=table;startSize=30;container=1;collapsible=0;childLayout=tableLayout;strokeColor=default;fontSize=16;" vertex="1" parent="1">
          <mxGeometry x="75" y="1285" width="950" height="215" as="geometry" />
        </mxCell>
        <mxCell id="Eo_9yfVZdQ0ogXxYjUO9-68" value="" style="shape=tableRow;horizontal=0;startSize=0;swimlaneHead=0;swimlaneBody=0;strokeColor=inherit;top=0;left=0;bottom=0;right=0;collapsible=0;dropTarget=0;fillColor=none;points=[[0,0.5],[1,0.5]];portConstraint=eastwest;fontSize=16;" vertex="1" parent="Eo_9yfVZdQ0ogXxYjUO9-67">
          <mxGeometry y="30" width="950" height="65" as="geometry" />
        </mxCell>
        <mxCell id="Eo_9yfVZdQ0ogXxYjUO9-69" value="idPublicaciÃ³n" style="shape=partialRectangle;html=1;whiteSpace=wrap;connectable=0;strokeColor=inherit;overflow=hidden;fillColor=none;top=0;left=0;bottom=0;right=0;pointerEvents=1;fontSize=16;" vertex="1" parent="Eo_9yfVZdQ0ogXxYjUO9-68">
          <mxGeometry width="190" height="65" as="geometry">
            <mxRectangle width="190" height="65" as="alternateBounds" />
          </mxGeometry>
        </mxCell>
        <mxCell id="Eo_9yfVZdQ0ogXxYjUO9-70" value="volumen" style="shape=partialRectangle;html=1;whiteSpace=wrap;connectable=0;strokeColor=inherit;overflow=hidden;fillColor=none;top=0;left=0;bottom=0;right=0;pointerEvents=1;fontSize=16;" vertex="1" parent="Eo_9yfVZdQ0ogXxYjUO9-68">
          <mxGeometry x="190" width="190" height="65" as="geometry">
            <mxRectangle width="190" height="65" as="alternateBounds" />
          </mxGeometry>
        </mxCell>
        <mxCell id="Eo_9yfVZdQ0ogXxYjUO9-71" value="nÃºmero" style="shape=partialRectangle;html=1;whiteSpace=wrap;connectable=0;strokeColor=inherit;overflow=hidden;fillColor=none;top=0;left=0;bottom=0;right=0;pointerEvents=1;fontSize=16;" vertex="1" parent="Eo_9yfVZdQ0ogXxYjUO9-68">
          <mxGeometry x="380" width="190" height="65" as="geometry">
            <mxRectangle width="190" height="65" as="alternateBounds" />
          </mxGeometry>
        </mxCell>
        <mxCell id="Eo_9yfVZdQ0ogXxYjUO9-72" value="pÃ¡g_inicio" style="shape=partialRectangle;html=1;whiteSpace=wrap;connectable=0;strokeColor=inherit;overflow=hidden;fillColor=none;top=0;left=0;bottom=0;right=0;pointerEvents=1;fontSize=16;" vertex="1" parent="Eo_9yfVZdQ0ogXxYjUO9-68">
          <mxGeometry x="570" width="190" height="65" as="geometry">
            <mxRectangle width="190" height="65" as="alternateBounds" />
          </mxGeometry>
        </mxCell>
        <mxCell id="Eo_9yfVZdQ0ogXxYjUO9-73" value="pÃ¡g_fin" style="shape=partialRectangle;html=1;whiteSpace=wrap;connectable=0;strokeColor=inherit;overflow=hidden;fillColor=none;top=0;left=0;bottom=0;right=0;pointerEvents=1;fontSize=16;" vertex="1" parent="Eo_9yfVZdQ0ogXxYjUO9-68">
          <mxGeometry x="760" width="190" height="65" as="geometry">
            <mxRectangle width="190" height="65" as="alternateBounds" />
          </mxGeometry>
        </mxCell>
        <mxCell id="Eo_9yfVZdQ0ogXxYjUO9-74" value="" style="shape=tableRow;horizontal=0;startSize=0;swimlaneHead=0;swimlaneBody=0;strokeColor=inherit;top=0;left=0;bottom=0;right=0;collapsible=0;dropTarget=0;fillColor=none;points=[[0,0.5],[1,0.5]];portConstraint=eastwest;fontSize=16;" vertex="1" parent="Eo_9yfVZdQ0ogXxYjUO9-67">
          <mxGeometry y="95" width="950" height="60" as="geometry" />
        </mxCell>
        <mxCell id="Eo_9yfVZdQ0ogXxYjUO9-75" value="PK" style="shape=partialRectangle;html=1;whiteSpace=wrap;connectable=0;strokeColor=inherit;overflow=hidden;fillColor=none;top=0;left=0;bottom=0;right=0;pointerEvents=1;fontSize=16;" vertex="1" parent="Eo_9yfVZdQ0ogXxYjUO9-74">
          <mxGeometry width="190" height="60" as="geometry">
            <mxRectangle width="190" height="60" as="alternateBounds" />
          </mxGeometry>
        </mxCell>
        <mxCell id="Eo_9yfVZdQ0ogXxYjUO9-76" value="" style="shape=partialRectangle;html=1;whiteSpace=wrap;connectable=0;strokeColor=inherit;overflow=hidden;fillColor=none;top=0;left=0;bottom=0;right=0;pointerEvents=1;fontSize=16;" vertex="1" parent="Eo_9yfVZdQ0ogXxYjUO9-74">
          <mxGeometry x="190" width="190" height="60" as="geometry">
            <mxRectangle width="190" height="60" as="alternateBounds" />
          </mxGeometry>
        </mxCell>
        <mxCell id="Eo_9yfVZdQ0ogXxYjUO9-77" value="" style="shape=partialRectangle;html=1;whiteSpace=wrap;connectable=0;strokeColor=inherit;overflow=hidden;fillColor=none;top=0;left=0;bottom=0;right=0;pointerEvents=1;fontSize=16;" vertex="1" parent="Eo_9yfVZdQ0ogXxYjUO9-74">
          <mxGeometry x="380" width="190" height="60" as="geometry">
            <mxRectangle width="190" height="60" as="alternateBounds" />
          </mxGeometry>
        </mxCell>
        <mxCell id="Eo_9yfVZdQ0ogXxYjUO9-78" style="shape=partialRectangle;html=1;whiteSpace=wrap;connectable=0;strokeColor=inherit;overflow=hidden;fillColor=none;top=0;left=0;bottom=0;right=0;pointerEvents=1;fontSize=16;" vertex="1" parent="Eo_9yfVZdQ0ogXxYjUO9-74">
          <mxGeometry x="570" width="190" height="60" as="geometry">
            <mxRectangle width="190" height="60" as="alternateBounds" />
          </mxGeometry>
        </mxCell>
        <mxCell id="Eo_9yfVZdQ0ogXxYjUO9-79" style="shape=partialRectangle;html=1;whiteSpace=wrap;connectable=0;strokeColor=inherit;overflow=hidden;fillColor=none;top=0;left=0;bottom=0;right=0;pointerEvents=1;fontSize=16;" vertex="1" parent="Eo_9yfVZdQ0ogXxYjUO9-74">
          <mxGeometry x="760" width="190" height="60" as="geometry">
            <mxRectangle width="190" height="60" as="alternateBounds" />
          </mxGeometry>
        </mxCell>
        <mxCell id="Eo_9yfVZdQ0ogXxYjUO9-170" style="shape=tableRow;horizontal=0;startSize=0;swimlaneHead=0;swimlaneBody=0;strokeColor=inherit;top=0;left=0;bottom=0;right=0;collapsible=0;dropTarget=0;fillColor=none;points=[[0,0.5],[1,0.5]];portConstraint=eastwest;fontSize=16;" vertex="1" parent="Eo_9yfVZdQ0ogXxYjUO9-67">
          <mxGeometry y="155" width="950" height="60" as="geometry" />
        </mxCell>
        <mxCell id="Eo_9yfVZdQ0ogXxYjUO9-171" value="FK.PUBLICACIÃN" style="shape=partialRectangle;html=1;whiteSpace=wrap;connectable=0;strokeColor=inherit;overflow=hidden;fillColor=none;top=0;left=0;bottom=0;right=0;pointerEvents=1;fontSize=16;" vertex="1" parent="Eo_9yfVZdQ0ogXxYjUO9-170">
          <mxGeometry width="190" height="60" as="geometry">
            <mxRectangle width="190" height="60" as="alternateBounds" />
          </mxGeometry>
        </mxCell>
        <mxCell id="Eo_9yfVZdQ0ogXxYjUO9-172" style="shape=partialRectangle;html=1;whiteSpace=wrap;connectable=0;strokeColor=inherit;overflow=hidden;fillColor=none;top=0;left=0;bottom=0;right=0;pointerEvents=1;fontSize=16;" vertex="1" parent="Eo_9yfVZdQ0ogXxYjUO9-170">
          <mxGeometry x="190" width="190" height="60" as="geometry">
            <mxRectangle width="190" height="60" as="alternateBounds" />
          </mxGeometry>
        </mxCell>
        <mxCell id="Eo_9yfVZdQ0ogXxYjUO9-173" style="shape=partialRectangle;html=1;whiteSpace=wrap;connectable=0;strokeColor=inherit;overflow=hidden;fillColor=none;top=0;left=0;bottom=0;right=0;pointerEvents=1;fontSize=16;" vertex="1" parent="Eo_9yfVZdQ0ogXxYjUO9-170">
          <mxGeometry x="380" width="190" height="60" as="geometry">
            <mxRectangle width="190" height="60" as="alternateBounds" />
          </mxGeometry>
        </mxCell>
        <mxCell id="Eo_9yfVZdQ0ogXxYjUO9-174" style="shape=partialRectangle;html=1;whiteSpace=wrap;connectable=0;strokeColor=inherit;overflow=hidden;fillColor=none;top=0;left=0;bottom=0;right=0;pointerEvents=1;fontSize=16;" vertex="1" parent="Eo_9yfVZdQ0ogXxYjUO9-170">
          <mxGeometry x="570" width="190" height="60" as="geometry">
            <mxRectangle width="190" height="60" as="alternateBounds" />
          </mxGeometry>
        </mxCell>
        <mxCell id="Eo_9yfVZdQ0ogXxYjUO9-175" style="shape=partialRectangle;html=1;whiteSpace=wrap;connectable=0;strokeColor=inherit;overflow=hidden;fillColor=none;top=0;left=0;bottom=0;right=0;pointerEvents=1;fontSize=16;" vertex="1" parent="Eo_9yfVZdQ0ogXxYjUO9-170">
          <mxGeometry x="760" width="190" height="60" as="geometry">
            <mxRectangle width="190" height="60" as="alternateBounds" />
          </mxGeometry>
        </mxCell>
        <mxCell id="Eo_9yfVZdQ0ogXxYjUO9-80" value="CONGRESO" style="shape=table;startSize=30;container=1;collapsible=0;childLayout=tableLayout;strokeColor=default;fontSize=16;" vertex="1" parent="1">
          <mxGeometry x="80" y="1560" width="1330" height="210" as="geometry" />
        </mxCell>
        <mxCell id="Eo_9yfVZdQ0ogXxYjUO9-81" value="" style="shape=tableRow;horizontal=0;startSize=0;swimlaneHead=0;swimlaneBody=0;strokeColor=inherit;top=0;left=0;bottom=0;right=0;collapsible=0;dropTarget=0;fillColor=none;points=[[0,0.5],[1,0.5]];portConstraint=eastwest;fontSize=16;" vertex="1" parent="Eo_9yfVZdQ0ogXxYjUO9-80">
          <mxGeometry y="30" width="1330" height="60" as="geometry" />
        </mxCell>
        <mxCell id="Eo_9yfVZdQ0ogXxYjUO9-82" value="idPublicaciÃ³n" style="shape=partialRectangle;html=1;whiteSpace=wrap;connectable=0;strokeColor=inherit;overflow=hidden;fillColor=none;top=0;left=0;bottom=0;right=0;pointerEvents=1;fontSize=16;" vertex="1" parent="Eo_9yfVZdQ0ogXxYjUO9-81">
          <mxGeometry width="190" height="60" as="geometry">
            <mxRectangle width="190" height="60" as="alternateBounds" />
          </mxGeometry>
        </mxCell>
        <mxCell id="Eo_9yfVZdQ0ogXxYjUO9-83" value="congreso" style="shape=partialRectangle;html=1;whiteSpace=wrap;connectable=0;strokeColor=inherit;overflow=hidden;fillColor=none;top=0;left=0;bottom=0;right=0;pointerEvents=1;fontSize=16;" vertex="1" parent="Eo_9yfVZdQ0ogXxYjUO9-81">
          <mxGeometry x="190" width="190" height="60" as="geometry">
            <mxRectangle width="190" height="60" as="alternateBounds" />
          </mxGeometry>
        </mxCell>
        <mxCell id="Eo_9yfVZdQ0ogXxYjUO9-84" value="ciudad" style="shape=partialRectangle;html=1;whiteSpace=wrap;connectable=0;strokeColor=inherit;overflow=hidden;fillColor=none;top=0;left=0;bottom=0;right=0;pointerEvents=1;fontSize=16;" vertex="1" parent="Eo_9yfVZdQ0ogXxYjUO9-81">
          <mxGeometry x="380" width="190" height="60" as="geometry">
            <mxRectangle width="190" height="60" as="alternateBounds" />
          </mxGeometry>
        </mxCell>
        <mxCell id="Eo_9yfVZdQ0ogXxYjUO9-85" value="paÃ­s" style="shape=partialRectangle;html=1;whiteSpace=wrap;connectable=0;strokeColor=inherit;overflow=hidden;fillColor=none;top=0;left=0;bottom=0;right=0;pointerEvents=1;fontSize=16;" vertex="1" parent="Eo_9yfVZdQ0ogXxYjUO9-81">
          <mxGeometry x="570" width="190" height="60" as="geometry">
            <mxRectangle width="190" height="60" as="alternateBounds" />
          </mxGeometry>
        </mxCell>
        <mxCell id="Eo_9yfVZdQ0ogXxYjUO9-86" value="f_inicio" style="shape=partialRectangle;html=1;whiteSpace=wrap;connectable=0;strokeColor=inherit;overflow=hidden;fillColor=none;top=0;left=0;bottom=0;right=0;pointerEvents=1;fontSize=16;" vertex="1" parent="Eo_9yfVZdQ0ogXxYjUO9-81">
          <mxGeometry x="760" width="190" height="60" as="geometry">
            <mxRectangle width="190" height="60" as="alternateBounds" />
          </mxGeometry>
        </mxCell>
        <mxCell id="Eo_9yfVZdQ0ogXxYjUO9-137" value="f_fin" style="shape=partialRectangle;html=1;whiteSpace=wrap;connectable=0;strokeColor=inherit;overflow=hidden;fillColor=none;top=0;left=0;bottom=0;right=0;pointerEvents=1;fontSize=16;" vertex="1" parent="Eo_9yfVZdQ0ogXxYjUO9-81">
          <mxGeometry x="950" width="190" height="60" as="geometry">
            <mxRectangle width="190" height="60" as="alternateBounds" />
          </mxGeometry>
        </mxCell>
        <mxCell id="Eo_9yfVZdQ0ogXxYjUO9-139" value="editorial" style="shape=partialRectangle;html=1;whiteSpace=wrap;connectable=0;strokeColor=inherit;overflow=hidden;fillColor=none;top=0;left=0;bottom=0;right=0;pointerEvents=1;fontSize=16;" vertex="1" parent="Eo_9yfVZdQ0ogXxYjUO9-81">
          <mxGeometry x="1140" width="190" height="60" as="geometry">
            <mxRectangle width="190" height="60" as="alternateBounds" />
          </mxGeometry>
        </mxCell>
        <mxCell id="Eo_9yfVZdQ0ogXxYjUO9-87" value="" style="shape=tableRow;horizontal=0;startSize=0;swimlaneHead=0;swimlaneBody=0;strokeColor=inherit;top=0;left=0;bottom=0;right=0;collapsible=0;dropTarget=0;fillColor=none;points=[[0,0.5],[1,0.5]];portConstraint=eastwest;fontSize=16;" vertex="1" parent="Eo_9yfVZdQ0ogXxYjUO9-80">
          <mxGeometry y="90" width="1330" height="60" as="geometry" />
        </mxCell>
        <mxCell id="Eo_9yfVZdQ0ogXxYjUO9-88" value="PK" style="shape=partialRectangle;html=1;whiteSpace=wrap;connectable=0;strokeColor=inherit;overflow=hidden;fillColor=none;top=0;left=0;bottom=0;right=0;pointerEvents=1;fontSize=16;" vertex="1" parent="Eo_9yfVZdQ0ogXxYjUO9-87">
          <mxGeometry width="190" height="60" as="geometry">
            <mxRectangle width="190" height="60" as="alternateBounds" />
          </mxGeometry>
        </mxCell>
        <mxCell id="Eo_9yfVZdQ0ogXxYjUO9-89" value="" style="shape=partialRectangle;html=1;whiteSpace=wrap;connectable=0;strokeColor=inherit;overflow=hidden;fillColor=none;top=0;left=0;bottom=0;right=0;pointerEvents=1;fontSize=16;" vertex="1" parent="Eo_9yfVZdQ0ogXxYjUO9-87">
          <mxGeometry x="190" width="190" height="60" as="geometry">
            <mxRectangle width="190" height="60" as="alternateBounds" />
          </mxGeometry>
        </mxCell>
        <mxCell id="Eo_9yfVZdQ0ogXxYjUO9-90" value="" style="shape=partialRectangle;html=1;whiteSpace=wrap;connectable=0;strokeColor=inherit;overflow=hidden;fillColor=none;top=0;left=0;bottom=0;right=0;pointerEvents=1;fontSize=16;" vertex="1" parent="Eo_9yfVZdQ0ogXxYjUO9-87">
          <mxGeometry x="380" width="190" height="60" as="geometry">
            <mxRectangle width="190" height="60" as="alternateBounds" />
          </mxGeometry>
        </mxCell>
        <mxCell id="Eo_9yfVZdQ0ogXxYjUO9-91" style="shape=partialRectangle;html=1;whiteSpace=wrap;connectable=0;strokeColor=inherit;overflow=hidden;fillColor=none;top=0;left=0;bottom=0;right=0;pointerEvents=1;fontSize=16;" vertex="1" parent="Eo_9yfVZdQ0ogXxYjUO9-87">
          <mxGeometry x="570" width="190" height="60" as="geometry">
            <mxRectangle width="190" height="60" as="alternateBounds" />
          </mxGeometry>
        </mxCell>
        <mxCell id="Eo_9yfVZdQ0ogXxYjUO9-92" style="shape=partialRectangle;html=1;whiteSpace=wrap;connectable=0;strokeColor=inherit;overflow=hidden;fillColor=none;top=0;left=0;bottom=0;right=0;pointerEvents=1;fontSize=16;" vertex="1" parent="Eo_9yfVZdQ0ogXxYjUO9-87">
          <mxGeometry x="760" width="190" height="60" as="geometry">
            <mxRectangle width="190" height="60" as="alternateBounds" />
          </mxGeometry>
        </mxCell>
        <mxCell id="Eo_9yfVZdQ0ogXxYjUO9-138" style="shape=partialRectangle;html=1;whiteSpace=wrap;connectable=0;strokeColor=inherit;overflow=hidden;fillColor=none;top=0;left=0;bottom=0;right=0;pointerEvents=1;fontSize=16;" vertex="1" parent="Eo_9yfVZdQ0ogXxYjUO9-87">
          <mxGeometry x="950" width="190" height="60" as="geometry">
            <mxRectangle width="190" height="60" as="alternateBounds" />
          </mxGeometry>
        </mxCell>
        <mxCell id="Eo_9yfVZdQ0ogXxYjUO9-140" style="shape=partialRectangle;html=1;whiteSpace=wrap;connectable=0;strokeColor=inherit;overflow=hidden;fillColor=none;top=0;left=0;bottom=0;right=0;pointerEvents=1;fontSize=16;" vertex="1" parent="Eo_9yfVZdQ0ogXxYjUO9-87">
          <mxGeometry x="1140" width="190" height="60" as="geometry">
            <mxRectangle width="190" height="60" as="alternateBounds" />
          </mxGeometry>
        </mxCell>
        <mxCell id="Eo_9yfVZdQ0ogXxYjUO9-176" style="shape=tableRow;horizontal=0;startSize=0;swimlaneHead=0;swimlaneBody=0;strokeColor=inherit;top=0;left=0;bottom=0;right=0;collapsible=0;dropTarget=0;fillColor=none;points=[[0,0.5],[1,0.5]];portConstraint=eastwest;fontSize=16;" vertex="1" parent="Eo_9yfVZdQ0ogXxYjUO9-80">
          <mxGeometry y="150" width="1330" height="60" as="geometry" />
        </mxCell>
        <mxCell id="Eo_9yfVZdQ0ogXxYjUO9-177" value="&#xa;&lt;span style=&quot;color: rgb(0, 0, 0); font-family: Helvetica; font-size: 16px; font-style: normal; font-variant-ligatures: normal; font-variant-caps: normal; font-weight: 400; letter-spacing: normal; orphans: 2; text-align: center; text-indent: 0px; text-transform: none; widows: 2; word-spacing: 0px; -webkit-text-stroke-width: 0px; white-space: normal; background-color: rgb(251, 251, 251); text-decoration-thickness: initial; text-decoration-style: initial; text-decoration-color: initial; display: inline !important; float: none;&quot;&gt;FK.PUBLICACIÃN&lt;/span&gt;&#xa;&#xa;" style="shape=partialRectangle;html=1;whiteSpace=wrap;connectable=0;strokeColor=inherit;overflow=hidden;fillColor=none;top=0;left=0;bottom=0;right=0;pointerEvents=1;fontSize=16;" vertex="1" parent="Eo_9yfVZdQ0ogXxYjUO9-176">
          <mxGeometry width="190" height="60" as="geometry">
            <mxRectangle width="190" height="60" as="alternateBounds" />
          </mxGeometry>
        </mxCell>
        <mxCell id="Eo_9yfVZdQ0ogXxYjUO9-178" style="shape=partialRectangle;html=1;whiteSpace=wrap;connectable=0;strokeColor=inherit;overflow=hidden;fillColor=none;top=0;left=0;bottom=0;right=0;pointerEvents=1;fontSize=16;" vertex="1" parent="Eo_9yfVZdQ0ogXxYjUO9-176">
          <mxGeometry x="190" width="190" height="60" as="geometry">
            <mxRectangle width="190" height="60" as="alternateBounds" />
          </mxGeometry>
        </mxCell>
        <mxCell id="Eo_9yfVZdQ0ogXxYjUO9-179" style="shape=partialRectangle;html=1;whiteSpace=wrap;connectable=0;strokeColor=inherit;overflow=hidden;fillColor=none;top=0;left=0;bottom=0;right=0;pointerEvents=1;fontSize=16;" vertex="1" parent="Eo_9yfVZdQ0ogXxYjUO9-176">
          <mxGeometry x="380" width="190" height="60" as="geometry">
            <mxRectangle width="190" height="60" as="alternateBounds" />
          </mxGeometry>
        </mxCell>
        <mxCell id="Eo_9yfVZdQ0ogXxYjUO9-180" style="shape=partialRectangle;html=1;whiteSpace=wrap;connectable=0;strokeColor=inherit;overflow=hidden;fillColor=none;top=0;left=0;bottom=0;right=0;pointerEvents=1;fontSize=16;" vertex="1" parent="Eo_9yfVZdQ0ogXxYjUO9-176">
          <mxGeometry x="570" width="190" height="60" as="geometry">
            <mxRectangle width="190" height="60" as="alternateBounds" />
          </mxGeometry>
        </mxCell>
        <mxCell id="Eo_9yfVZdQ0ogXxYjUO9-181" style="shape=partialRectangle;html=1;whiteSpace=wrap;connectable=0;strokeColor=inherit;overflow=hidden;fillColor=none;top=0;left=0;bottom=0;right=0;pointerEvents=1;fontSize=16;" vertex="1" parent="Eo_9yfVZdQ0ogXxYjUO9-176">
          <mxGeometry x="760" width="190" height="60" as="geometry">
            <mxRectangle width="190" height="60" as="alternateBounds" />
          </mxGeometry>
        </mxCell>
        <mxCell id="Eo_9yfVZdQ0ogXxYjUO9-182" style="shape=partialRectangle;html=1;whiteSpace=wrap;connectable=0;strokeColor=inherit;overflow=hidden;fillColor=none;top=0;left=0;bottom=0;right=0;pointerEvents=1;fontSize=16;" vertex="1" parent="Eo_9yfVZdQ0ogXxYjUO9-176">
          <mxGeometry x="950" width="190" height="60" as="geometry">
            <mxRectangle width="190" height="60" as="alternateBounds" />
          </mxGeometry>
        </mxCell>
        <mxCell id="Eo_9yfVZdQ0ogXxYjUO9-183" style="shape=partialRectangle;html=1;whiteSpace=wrap;connectable=0;strokeColor=inherit;overflow=hidden;fillColor=none;top=0;left=0;bottom=0;right=0;pointerEvents=1;fontSize=16;" vertex="1" parent="Eo_9yfVZdQ0ogXxYjUO9-176">
          <mxGeometry x="1140" width="190" height="60" as="geometry">
            <mxRectangle width="190" height="60" as="alternateBounds" />
          </mxGeometry>
        </mxCell>
        <mxCell id="Eo_9yfVZdQ0ogXxYjUO9-93" value="TRABAJA" style="shape=table;startSize=30;container=1;collapsible=0;childLayout=tableLayout;strokeColor=default;fontSize=16;" vertex="1" parent="1">
          <mxGeometry x="75" y="370" width="760" height="210" as="geometry" />
        </mxCell>
        <mxCell id="Eo_9yfVZdQ0ogXxYjUO9-94" value="" style="shape=tableRow;horizontal=0;startSize=0;swimlaneHead=0;swimlaneBody=0;strokeColor=inherit;top=0;left=0;bottom=0;right=0;collapsible=0;dropTarget=0;fillColor=none;points=[[0,0.5],[1,0.5]];portConstraint=eastwest;fontSize=16;" vertex="1" parent="Eo_9yfVZdQ0ogXxYjUO9-93">
          <mxGeometry y="30" width="760" height="60" as="geometry" />
        </mxCell>
        <mxCell id="Eo_9yfVZdQ0ogXxYjUO9-95" value="idProyecto" style="shape=partialRectangle;html=1;whiteSpace=wrap;connectable=0;strokeColor=inherit;overflow=hidden;fillColor=none;top=0;left=0;bottom=0;right=0;pointerEvents=1;fontSize=16;" vertex="1" parent="Eo_9yfVZdQ0ogXxYjUO9-94">
          <mxGeometry width="190" height="60" as="geometry">
            <mxRectangle width="190" height="60" as="alternateBounds" />
          </mxGeometry>
        </mxCell>
        <mxCell id="Eo_9yfVZdQ0ogXxYjUO9-96" value="idProfesor" style="shape=partialRectangle;html=1;whiteSpace=wrap;connectable=0;strokeColor=inherit;overflow=hidden;fillColor=none;top=0;left=0;bottom=0;right=0;pointerEvents=1;fontSize=16;" vertex="1" parent="Eo_9yfVZdQ0ogXxYjUO9-94">
          <mxGeometry x="190" width="190" height="60" as="geometry">
            <mxRectangle width="190" height="60" as="alternateBounds" />
          </mxGeometry>
        </mxCell>
        <mxCell id="Eo_9yfVZdQ0ogXxYjUO9-97" value="f_inicio" style="shape=partialRectangle;html=1;whiteSpace=wrap;connectable=0;strokeColor=inherit;overflow=hidden;fillColor=none;top=0;left=0;bottom=0;right=0;pointerEvents=1;fontSize=16;" vertex="1" parent="Eo_9yfVZdQ0ogXxYjUO9-94">
          <mxGeometry x="380" width="190" height="60" as="geometry">
            <mxRectangle width="190" height="60" as="alternateBounds" />
          </mxGeometry>
        </mxCell>
        <mxCell id="Eo_9yfVZdQ0ogXxYjUO9-98" value="f_fin" style="shape=partialRectangle;html=1;whiteSpace=wrap;connectable=0;strokeColor=inherit;overflow=hidden;fillColor=none;top=0;left=0;bottom=0;right=0;pointerEvents=1;fontSize=16;" vertex="1" parent="Eo_9yfVZdQ0ogXxYjUO9-94">
          <mxGeometry x="570" width="190" height="60" as="geometry">
            <mxRectangle width="190" height="60" as="alternateBounds" />
          </mxGeometry>
        </mxCell>
        <mxCell id="Eo_9yfVZdQ0ogXxYjUO9-100" value="" style="shape=tableRow;horizontal=0;startSize=0;swimlaneHead=0;swimlaneBody=0;strokeColor=inherit;top=0;left=0;bottom=0;right=0;collapsible=0;dropTarget=0;fillColor=none;points=[[0,0.5],[1,0.5]];portConstraint=eastwest;fontSize=16;" vertex="1" parent="Eo_9yfVZdQ0ogXxYjUO9-93">
          <mxGeometry y="90" width="760" height="60" as="geometry" />
        </mxCell>
        <mxCell id="Eo_9yfVZdQ0ogXxYjUO9-101" value="PK" style="shape=partialRectangle;html=1;whiteSpace=wrap;connectable=0;strokeColor=inherit;overflow=hidden;fillColor=none;top=0;left=0;bottom=0;right=0;pointerEvents=1;fontSize=16;rowspan=1;colspan=3;" vertex="1" parent="Eo_9yfVZdQ0ogXxYjUO9-100">
          <mxGeometry width="570" height="60" as="geometry">
            <mxRectangle width="190" height="60" as="alternateBounds" />
          </mxGeometry>
        </mxCell>
        <mxCell id="Eo_9yfVZdQ0ogXxYjUO9-102" value="" style="shape=partialRectangle;html=1;whiteSpace=wrap;connectable=0;strokeColor=inherit;overflow=hidden;fillColor=none;top=0;left=0;bottom=0;right=0;pointerEvents=1;fontSize=16;" vertex="1" visible="0" parent="Eo_9yfVZdQ0ogXxYjUO9-100">
          <mxGeometry x="190" width="190" height="60" as="geometry">
            <mxRectangle width="190" height="60" as="alternateBounds" />
          </mxGeometry>
        </mxCell>
        <mxCell id="Eo_9yfVZdQ0ogXxYjUO9-103" value="" style="shape=partialRectangle;html=1;whiteSpace=wrap;connectable=0;strokeColor=inherit;overflow=hidden;fillColor=none;top=0;left=0;bottom=0;right=0;pointerEvents=1;fontSize=16;" vertex="1" visible="0" parent="Eo_9yfVZdQ0ogXxYjUO9-100">
          <mxGeometry x="380" width="190" height="60" as="geometry">
            <mxRectangle width="190" height="60" as="alternateBounds" />
          </mxGeometry>
        </mxCell>
        <mxCell id="Eo_9yfVZdQ0ogXxYjUO9-104" style="shape=partialRectangle;html=1;whiteSpace=wrap;connectable=0;strokeColor=inherit;overflow=hidden;fillColor=none;top=0;left=0;bottom=0;right=0;pointerEvents=1;fontSize=16;" vertex="1" parent="Eo_9yfVZdQ0ogXxYjUO9-100">
          <mxGeometry x="570" width="190" height="60" as="geometry">
            <mxRectangle width="190" height="60" as="alternateBounds" />
          </mxGeometry>
        </mxCell>
        <mxCell id="Eo_9yfVZdQ0ogXxYjUO9-110" style="shape=tableRow;horizontal=0;startSize=0;swimlaneHead=0;swimlaneBody=0;strokeColor=inherit;top=0;left=0;bottom=0;right=0;collapsible=0;dropTarget=0;fillColor=none;points=[[0,0.5],[1,0.5]];portConstraint=eastwest;fontSize=16;" vertex="1" parent="Eo_9yfVZdQ0ogXxYjUO9-93">
          <mxGeometry y="150" width="760" height="60" as="geometry" />
        </mxCell>
        <mxCell id="Eo_9yfVZdQ0ogXxYjUO9-111" value="FK.PROYECTO_INVESTIGACIÃN" style="shape=partialRectangle;html=1;whiteSpace=wrap;connectable=0;strokeColor=inherit;overflow=hidden;fillColor=none;top=0;left=0;bottom=0;right=0;pointerEvents=1;fontSize=16;" vertex="1" parent="Eo_9yfVZdQ0ogXxYjUO9-110">
          <mxGeometry width="190" height="60" as="geometry">
            <mxRectangle width="190" height="60" as="alternateBounds" />
          </mxGeometry>
        </mxCell>
        <mxCell id="Eo_9yfVZdQ0ogXxYjUO9-112" value="FK.PROFESOR" style="shape=partialRectangle;html=1;whiteSpace=wrap;connectable=0;strokeColor=inherit;overflow=hidden;fillColor=none;top=0;left=0;bottom=0;right=0;pointerEvents=1;fontSize=16;" vertex="1" parent="Eo_9yfVZdQ0ogXxYjUO9-110">
          <mxGeometry x="190" width="190" height="60" as="geometry">
            <mxRectangle width="190" height="60" as="alternateBounds" />
          </mxGeometry>
        </mxCell>
        <mxCell id="Eo_9yfVZdQ0ogXxYjUO9-113" style="shape=partialRectangle;html=1;whiteSpace=wrap;connectable=0;strokeColor=inherit;overflow=hidden;fillColor=none;top=0;left=0;bottom=0;right=0;pointerEvents=1;fontSize=16;" vertex="1" parent="Eo_9yfVZdQ0ogXxYjUO9-110">
          <mxGeometry x="380" width="190" height="60" as="geometry">
            <mxRectangle width="190" height="60" as="alternateBounds" />
          </mxGeometry>
        </mxCell>
        <mxCell id="Eo_9yfVZdQ0ogXxYjUO9-114" style="shape=partialRectangle;html=1;whiteSpace=wrap;connectable=0;strokeColor=inherit;overflow=hidden;fillColor=none;top=0;left=0;bottom=0;right=0;pointerEvents=1;fontSize=16;" vertex="1" parent="Eo_9yfVZdQ0ogXxYjUO9-110">
          <mxGeometry x="570" width="190" height="60" as="geometry">
            <mxRectangle width="190" height="60" as="alternateBounds" />
          </mxGeometry>
        </mxCell>
        <mxCell id="Eo_9yfVZdQ0ogXxYjUO9-186" value="SUPERVISA" style="shape=table;startSize=30;container=1;collapsible=0;childLayout=tableLayout;strokeColor=default;fontSize=16;" vertex="1" parent="1">
          <mxGeometry x="80" y="1810" width="380" height="210" as="geometry" />
        </mxCell>
        <mxCell id="Eo_9yfVZdQ0ogXxYjUO9-187" value="" style="shape=tableRow;horizontal=0;startSize=0;swimlaneHead=0;swimlaneBody=0;strokeColor=inherit;top=0;left=0;bottom=0;right=0;collapsible=0;dropTarget=0;fillColor=none;points=[[0,0.5],[1,0.5]];portConstraint=eastwest;fontSize=16;" vertex="1" parent="Eo_9yfVZdQ0ogXxYjUO9-186">
          <mxGeometry y="30" width="380" height="60" as="geometry" />
        </mxCell>
        <mxCell id="Eo_9yfVZdQ0ogXxYjUO9-188" value="idDoctor" style="shape=partialRectangle;html=1;whiteSpace=wrap;connectable=0;strokeColor=inherit;overflow=hidden;fillColor=none;top=0;left=0;bottom=0;right=0;pointerEvents=1;fontSize=16;" vertex="1" parent="Eo_9yfVZdQ0ogXxYjUO9-187">
          <mxGeometry width="190" height="60" as="geometry">
            <mxRectangle width="190" height="60" as="alternateBounds" />
          </mxGeometry>
        </mxCell>
        <mxCell id="Eo_9yfVZdQ0ogXxYjUO9-189" value="idNoDoctor" style="shape=partialRectangle;html=1;whiteSpace=wrap;connectable=0;strokeColor=inherit;overflow=hidden;fillColor=none;top=0;left=0;bottom=0;right=0;pointerEvents=1;fontSize=16;" vertex="1" parent="Eo_9yfVZdQ0ogXxYjUO9-187">
          <mxGeometry x="190" width="190" height="60" as="geometry">
            <mxRectangle width="190" height="60" as="alternateBounds" />
          </mxGeometry>
        </mxCell>
        <mxCell id="Eo_9yfVZdQ0ogXxYjUO9-190" value="" style="shape=tableRow;horizontal=0;startSize=0;swimlaneHead=0;swimlaneBody=0;strokeColor=inherit;top=0;left=0;bottom=0;right=0;collapsible=0;dropTarget=0;fillColor=none;points=[[0,0.5],[1,0.5]];portConstraint=eastwest;fontSize=16;" vertex="1" parent="Eo_9yfVZdQ0ogXxYjUO9-186">
          <mxGeometry y="90" width="380" height="60" as="geometry" />
        </mxCell>
        <mxCell id="Eo_9yfVZdQ0ogXxYjUO9-191" value="PK" style="shape=partialRectangle;html=1;whiteSpace=wrap;connectable=0;strokeColor=inherit;overflow=hidden;fillColor=none;top=0;left=0;bottom=0;right=0;pointerEvents=1;fontSize=16;rowspan=1;colspan=2;" vertex="1" parent="Eo_9yfVZdQ0ogXxYjUO9-190">
          <mxGeometry width="380" height="60" as="geometry">
            <mxRectangle width="190" height="60" as="alternateBounds" />
          </mxGeometry>
        </mxCell>
        <mxCell id="Eo_9yfVZdQ0ogXxYjUO9-192" value="" style="shape=partialRectangle;html=1;whiteSpace=wrap;connectable=0;strokeColor=inherit;overflow=hidden;fillColor=none;top=0;left=0;bottom=0;right=0;pointerEvents=1;fontSize=16;" vertex="1" visible="0" parent="Eo_9yfVZdQ0ogXxYjUO9-190">
          <mxGeometry x="190" width="190" height="60" as="geometry">
            <mxRectangle width="190" height="60" as="alternateBounds" />
          </mxGeometry>
        </mxCell>
        <mxCell id="Eo_9yfVZdQ0ogXxYjUO9-193" style="shape=tableRow;horizontal=0;startSize=0;swimlaneHead=0;swimlaneBody=0;strokeColor=inherit;top=0;left=0;bottom=0;right=0;collapsible=0;dropTarget=0;fillColor=none;points=[[0,0.5],[1,0.5]];portConstraint=eastwest;fontSize=16;" vertex="1" parent="Eo_9yfVZdQ0ogXxYjUO9-186">
          <mxGeometry y="150" width="380" height="60" as="geometry" />
        </mxCell>
        <mxCell id="Eo_9yfVZdQ0ogXxYjUO9-194" value="FK.PROFESOR" style="shape=partialRectangle;html=1;whiteSpace=wrap;connectable=0;strokeColor=inherit;overflow=hidden;fillColor=none;top=0;left=0;bottom=0;right=0;pointerEvents=1;fontSize=16;" vertex="1" parent="Eo_9yfVZdQ0ogXxYjUO9-193">
          <mxGeometry width="190" height="60" as="geometry">
            <mxRectangle width="190" height="60" as="alternateBounds" />
          </mxGeometry>
        </mxCell>
        <mxCell id="Eo_9yfVZdQ0ogXxYjUO9-195" value="FK.PROFESOR" style="shape=partialRectangle;html=1;whiteSpace=wrap;connectable=0;strokeColor=inherit;overflow=hidden;fillColor=none;top=0;left=0;bottom=0;right=0;pointerEvents=1;fontSize=16;" vertex="1" parent="Eo_9yfVZdQ0ogXxYjUO9-193">
          <mxGeometry x="190" width="190" height="60" as="geometry">
            <mxRectangle width="190" height="60" as="alternateBounds" />
          </mxGeometry>
        </mxCell>
      </root>
    </mxGraphModel>
  </diagram>
</mxfile>
